<mxfile host="Electron" agent="Mozilla/5.0 (Windows NT 10.0; Win64; x64) AppleWebKit/537.36 (KHTML, like Gecko) draw.io/24.7.8 Chrome/128.0.6613.36 Electron/32.0.1 Safari/537.36" version="24.7.8">
  <diagram name="Page-1" id="wpXFPb69-7xoxpKbDkiL">
    <mxGraphModel dx="1909" dy="1129" grid="0" gridSize="10" guides="1" tooltips="1" connect="1" arrows="1" fold="1" page="1" pageScale="1" pageWidth="850" pageHeight="1100" math="0" shadow="0">
      <root>
        <mxCell id="0" />
        <mxCell id="1" parent="0" />
        <mxCell id="KS0Zy-HTCMdx_QMxHU3v-1" value="&lt;b&gt;&lt;font color=&quot;#0000ff&quot; style=&quot;font-size: 18px;&quot;&gt;Talk-Verse Hosting on VPS&lt;/font&gt;&lt;/b&gt;" style="rounded=1;whiteSpace=wrap;html=1;fillColor=#FFFFFF;fontColor=#ffffff;strokeColor=#001DBC;" parent="1" vertex="1">
          <mxGeometry x="100" y="127" width="388" height="53" as="geometry" />
        </mxCell>
        <mxCell id="KS0Zy-HTCMdx_QMxHU3v-3" value="" style="points=[[0.35,0,0],[0.98,0.51,0],[1,0.71,0],[0.67,1,0],[0,0.795,0],[0,0.65,0]];verticalLabelPosition=bottom;sketch=0;html=1;verticalAlign=top;aspect=fixed;align=center;pointerEvents=1;shape=mxgraph.cisco19.user;fillColor=#007FFF;strokeColor=none;" parent="1" vertex="1">
          <mxGeometry y="412.76" width="43" height="43" as="geometry" />
        </mxCell>
        <mxCell id="KS0Zy-HTCMdx_QMxHU3v-5" value="" style="endArrow=classic;html=1;rounded=0;fontFamily=Helvetica;fontSize=12;fontColor=default;autosize=1;resizable=0;strokeWidth=2;exitX=0.98;exitY=0.51;exitDx=0;exitDy=0;exitPerimeter=0;entryX=0;entryY=0.5;entryDx=0;entryDy=0;" parent="1" source="KS0Zy-HTCMdx_QMxHU3v-3" target="KS0Zy-HTCMdx_QMxHU3v-13" edge="1">
          <mxGeometry width="50" height="50" relative="1" as="geometry">
            <mxPoint x="-27" y="432.52" as="sourcePoint" />
            <mxPoint x="33" y="432.52" as="targetPoint" />
          </mxGeometry>
        </mxCell>
        <mxCell id="KS0Zy-HTCMdx_QMxHU3v-9" value="" style="rounded=1;whiteSpace=wrap;html=1;gradientColor=none;arcSize=3;" parent="1" vertex="1">
          <mxGeometry x="279" y="235.01999999999998" width="569" height="396" as="geometry" />
        </mxCell>
        <mxCell id="KS0Zy-HTCMdx_QMxHU3v-8" value="" style="verticalLabelPosition=bottom;html=1;verticalAlign=top;align=center;strokeColor=none;fillColor=#00BEF2;shape=mxgraph.azure.server_rack;" parent="1" vertex="1">
          <mxGeometry x="287" y="242.01999999999998" width="53" height="40" as="geometry" />
        </mxCell>
        <mxCell id="KS0Zy-HTCMdx_QMxHU3v-13" value="" style="rounded=1;whiteSpace=wrap;html=1;fillColor=#FFFFFF;" parent="1" vertex="1">
          <mxGeometry x="100" y="311.26" width="137" height="246" as="geometry" />
        </mxCell>
        <mxCell id="KS0Zy-HTCMdx_QMxHU3v-4" value="" style="shape=image;aspect=fixed;image=data:image/png,iVBORw0KGgoAAAANSUhEUgAABLAAAAGOCAYAAACHafq1AAAAAXNSR0IArs4c6QAAIABJREFUeF7s3QecXHW5//Hvc6ZsyW4SEgiQuhsCCAFUigWUZkMRQhIJcvVSVJQrghVRL5AJoFS7VwW84sW/5YJer6JSLpANioDSpRtCSIFA+rZsdmfO83d2E0homZmddmY+83JNsvn9nvL+jZA8nnPGxAsBBBBAAAEEEEAAAQQQQKDmBFwyXb5fXJ3LkutXNyRjjYlE4P3xIBFPZNK+nVkwIVQ4MQh9rJu2MwWjM/IxJo02WYvkSZeSkiXNPSFTwk0ZheqXhr7c1G9ufW5aL/kaSatjZqvDwZ+Hq9xteVK+IoyHGzPphoFQG9Mjm0YMqCnTrzULByylsObgaQgBBEoiYCWJSlAEEEAAAQQQQAABBBBAAIGyCbjL1s1rG9UUC3bo9/Q4hbGxgXyMm01w90mSTQzkO7u0g0ljXWouW3HZYZdptUI9L7PnzcIV7sFSmS9R6CsVs9WmYI3FMquaB9pXWqojXcbaSIUAAhERYIAVkYOiTAQQQAABBBBAAAEEEEBgs8A1xyr2rultk5Lm0122m7tNc/kEk3Zw+Ti5jQ0CjXRXrGrVTC5Xl0trTMpevbXKpGfd7B9S+Jgs8VjLaC20MxZurNoeKAwBBMomwACrbNQkQgABBBBAAAEEEEAAAQQKF+j88oSxsYbkQS4dEsrfHkgTQqnZXA0yNUgKCo9eJTuHhlrZK7b6JPXJrUvyu9385kx/cPN2X33q6SqplDIQQKDMAgywygxOOgQQQAABBBBAAAEEEEDgtQT8GsX01O7Nq9b3tSQbYxODMPMeyd4n+QGSxetZz93+YeY3e+j/l0gG927sznSOat+h2z5xz0A9u9A7AvUgwACrHk6ZHhFAAAEEEEAAAQQQQKCqBTylYPXAxJ0bEvFdJd/LpTeZ7ABJu9XElVWl0X/OpbtkulMZe8gS4cKWUYlF3HJYGmyiIlBpAQZYlT4B8iOAAAIIIIAAAggggEDdCqxNtY2OmQ4JZG93931c2tWkCZISdYuSf+OhXKst0CK5PR6Gui0R+C2NWryETznMH5MdCFSrAAOsaj0Z6kIAAQQQQAABBBBAAIGaFMhebdUTtO8dhjpB8plyjTHzEfV+e2CRDtsl65G8U/K/eCz4aXdm483jU8/0Fik+YRBAoEICDLAqBE9aBBBAAAEEEEAAAQQQqA8Bd9nKeTuMaPHWMRnzI6TBwdWbuMqqDOdvcnMtc9lPFcR+nuntf2bUvks6bY4yZchOCgQQKKIAA6wiYhIKAQQQQAABBBBAAAEEENgskL0UaP3ZU9pi8WA/yQ83s/e7+ySEKiPgri4z3SLTTYHF/to82h7ieVmVOQuyIlCIAAOsQtTYgwACCCCAAAIIIIAAAgi8ioCnFO/VlH1c9gGXDpI0XaYxcvH3r+p41/RJttDlf4tZ8Otm75tv3GJYHSdDFQi8hgD/AOXtgQACCCCAAAIIIIAAAggUSWD1OZOnN8TtLLm9y01j5TyMvUi0pQgTSso+K+shKfh2i5p/Z6mH+0uRiJgIIDB8AQZYwzckAgIIIIAAAggggAACCNSpQPb5VuvmtY2Kh/5GxYLT5D5TUlCnHJFu22QPKe6XKa0bRzwzdrVdcc9ApBuieARqTIABVo0dKO0ggAACCCCAAAIIIIBAeQRWfmXKzo0Nwdvkfqyk90gaWZ7MZCmZgCtjprszrl8Glrm5RUsfsZSyV2rxQgCBCgswwKrwAZAeAQQQQAABBBBAAAEEoiWwPjVxTNxiM102211vljQmWh1QbQ4C2edkPezym03h1S2pJY+a5DnsYwkCCJRIgAFWiWAJiwACCCCAAAIIIIAAArUnsGHe5HcMeHB+YNrHpWYezF57Z7xVR6YBk5aF0uWt3v9dHvZe4+dNe1UtwACrqo+H4hBAAAEEEEAAAQQQQKDSAiu+sOOIppEj9jT3s8x9dqXrIX+FBFyPKvBzvC/d0dqwfC23FlboHEhbtwIMsOr26GkcAQQQQAABBBBAAAEEXkvAUwo6ve1Ngek4SR+UtBNi9S1gUr9kN7np6v4wduPYeQs761uE7hEonwADrPJZkwkBBBBAAAEEEEAAAQQiIrBm7tTJCcucItksM+3urlhESqfM8giskGt+LObfbTr36Tt5PlZ50MlS3wIMsOr7/OkeAQQQQAABBBBAAAEEthDwlOJd1nZk4EpJ2tOlJEAIvIpAKNNKhfajFhv4hqWWrUEKAQRKJ8AAq3S2REYAAQQQQAABBBBAAIGICPjl+yXWP79qYpCxs01+gmTxiJROmZUWMLm73W0WntXT1ffXnS57rqfSJZEfgVoUYIBVi6dKTwgggAACCCCAAAIIIJCTgEvWk2rb0QIdE4b6jKTdc9rIIgReKmDqMrcr5fqvEdOfetjmKAMSAggUT4ABVvEsiYQAAggggAACCCCAAAIRE+id2/aWjOlMSYdLGh2x8im3ygRMlg5N90m6fLX7z9pTi/uqrETKQSCyAgywInt0FI4AAggggAACCCCAAAKFCvjH90v0TFx1umfsbJlGSQoKjcU+BLYSMLlcG+S6wRsGPj7yK8tXI4QAAsMXYIA1fEMiIIAAAggggAACCCCAQEQErjlWsffuM2U3pe0cC/QBdyUiUjplRlDA3Z90xc7osb6O8alneiPYAiUjUDUCDLCq5igoBAEEEEAAAQQQQAABBEop8ExqfPMIS8yMyT7trv0l8fehUoITe7PACklXxDx+ZfO8hctgQQCBwgT4B3ZhbuxCAAEEEEAAAQQQQACBCAn0zp02MWMDZ0l2vKSxESqdUmtBIHtLofntCuyC1nMXL6iFlugBgXILMMAqtzj5EEAAAQQQQAABBBBAoKwCXalJe0mx70r2NsnjZU1OMgQ2Cww9G+u5IAj+vTmcfLWlOtLgIIBA7gIMsHK3YiUCCCCAAAIIIIAAAghESOCpVFvjOPPDQtd3JJsWodIptbYFOmX6hnvyP0amnlhV263SHQLFE2CAVTxLIiGAAAIIIIAAAggggECVCHSn2nYy949kZF8yU2uVlEUZCGwWGDDza/753vx68zlP32/Zq7N4IYDAawowwOINggACCCCAAAIIIIAAAjUl0JeaOC2t+NlyzXFTU001RzM1JuD3uNn5rXss/r3NUabGmqMdBIoqwACrqJwEQwABBBBAAAEEEEAAgUoKrEtNnhoo+KnJ3sTzrip5EuTOSWDwuVj+jElf/JuevuawlHguVk5wLKpHAQZY9Xjq9IwAAggggAACCCCAQI0J+OX7JbpWrnxzkA5+7tKkGmuPdmpcwOXdZvbFFh/xU0s93F3j7dIeAgUJMMAqiI1NCCCAAAIIIIAAAgggUC0Cz6emtzRaz2xzfU3S+GqpizoQyEfATANy/Ucsbt9qOvupp/PZy1oE6kGAAVY9nDI9IoAAAggggAACCCBQowKeamvsUfBJKfy8M7yq0VOuq7b65fp1Ih4/p/GchU/WVec0i8A2BBhg8RZBAAEEEEAAAQQQQACByAp0pdq/KvnnJDVGtgkKR2ALAZOlQ/nNrcn4CfaVhSvBQQCBIQEGWLwTEEAAAQQQQAABBBBAIHIC6y6cvF1so82T7PTIFU/BCOQiYLojMZD514b40qcspTCXLaxBoJYFGGDV8unSGwIIIIAAAggggAACNSjQe8FuEzLpga9I/lFJDTXYIi0hMCjg8ruVCT53w2NP/WXOtcrAgkA9CzDAqufTp3cEEEAAAQQQQAABBCIm4KmJY3oUvyx0zTHTiIiVT7kI5CsQmuzu0O3zralFt5vJ8w3AegRqRYABVq2cJH0ggAACCCCAAAIIIFDjAv7x/RLd41f/SrL3SR6v8XZpD4HNAi7TIwmPHdOYenIhLAjUqwADrHo9efpGAAEEEEAAAQQQQCBCAp7abftu9X9P0nERKptSESiigD2RDDKzkuGSR3kmVhFZCRUZAQZYkTkqCkUAAQQQQAABBBBAoD4FVv37xAkNifi5kk6SlKxPBbpGYFDgQffgtFZb9BeGWLwj6k2AAVa9nTj9IoAAAggggAACCCAQIYHVp08bmRybuVDSCZK3RKh0SkWgFAKhZH8JFH56ROrpe0uRgJgIVKsAA6xqPRnqQgABBBBAAAEEEEAAAXWn2i+R+WfclYADAQQGBUJJC7Sx77jWC1esxASBehFggFUvJ02fCCCAAAIIIIAAAghESMC/MbGpqzN+ukkXR6hsSkWgbAIu/U5KfnRk6olVZUtKIgQqKMAAq4L4pEYAAQQQQAABBBBAAIGXC3hqfHNv0HhSGIbZWwdHYoQAAq8sYG4/60sPnLX9V5ctxwiBWhdggFXrJ0x/CCCAAAIIIIAAAghESMBTh8a7w8WzLaZL3TUpQqVTKgJlFzDTRg/1gxbTPEstXlf2AkiIQBkFGGCVEZtUCCCAAAIIIIAAAggg8NoCq8+ZNj0ZZG6Q+USsEEBg2wLu6rHAzmrxKZdbqiO97R2sQCCaAgywonluVI0AAggggAACCCCAQM0J9M6dOjljmT9ItlfNNUdDCJRWYLVJHx6RWnyjSV7aVERHoDICDLAq405WBBBAAAEEEEAAAQQQ2EJg7QXtU2Jp/75J7wMGAQTyFzBpcUx2YlPqqdvy380OBKpfgAFW9Z8RFSKAAAIIIIAAAgggUNMCnV+eMNYakudJ/jFJyZpuluYQKKGAmd3j6diJrecvfLiEaQiNQEUEGGBVhJ2kCCCAAAIIIIAAAgggkBXwlOK91vbR0PUNSc2oIIDAsARCk67JKH3aqNSyNcOKxGYEqkyAAVaVHQjlIIAAAggggAACCCBQTwKd5015a+C61t0m1FPf9IpAyQRcG9yUem51/Nu7fnfhxpLlITACZRZggFVmcNIhgAACCCCAAAIIIIDAkEDf+dN2GQgz/y33/TBBAIHiCZjpWXM7dUTqqd8VLyqREKisAAOsyvqTHQEEEEAAAQQQQACBuhTw1MQxvRb/ceiaUZcANI1AqQVMT7rr/SNTix8rdSriI1AOAQZY5VAmBwIIIIAAAggggAACCLwg4CkF3dZ2jlxfltQADQIIlEjA7E8tXb3vtcue6ylRBsIiUDYBBlhloyYRAggggAACCCCAAAIIZIdXPd7+Tjf/gaSpiCCAQEkF+uS6sGVs/GI7g+dhlVSa4CUXYIBVcmISIIAAAggggAACCCCAwGaBnq9O2dkH7McuHYEKAgiURWBRGPqnRgZP32gphWXJSBIESiDAAKsEqIREAAEEEEAAAQQQQACBVxboTrV9002nyZXACAEEyiLgkhZIseNaU08+X5aMJEGgBAIMsEqASkgEEEAAAQQQQAABBBB4uUDPvPaj3PU/Lo/jgwACZRUIXeHFI1NLvlLWrCRDoIgCDLCKiEkoBBBAAAEEEEAAAQQQeGWBdedPaY9l7AZJu2GEAAIVERhQoHe1nrt4QUWykxSBYQowwBomINsRQAABBBBAAAEEEEDgtQVWz502Mmnp80061aUkXgggUBkBk/4Wk+Y0pRYvrkwFZEWgcAEGWIXbsRMBBBBAAAEEEEAAAQS2IZBKKfic2t9v7j+UaWfAEECgogL9Ln1r/fp0atI3l22oaCUkRyBPAQZYeYKxHAEEEEAAAQQQQAABBHIX6PzyhLHWkLj2nw+RPiz3XaxEAIHSCdgyk53cklp0c+lyEBmB4gswwCq+KRERQAABBBBAAAEEEEBAkkvWfV7b6Qr1bUAQQKCKBEz/3eI61VKL11VRVZSCwGsKMMDiDYIAAggggAACCCCAAAIlEeg+b+reHobZqzzGlSQBQRFAoCABk3plwcda5i76RUEB2IRABQQYYFUAnZQIIIAAAggggAACCNS6gKfGN/d48pduOqrWe6U/BCIpYHpyg+tt41KLV0SyfoquOwEGWHV35DSMAAIIIIAAAggggEDpBTrPbTtZpm+bqbX02ciAAAKFCdiPWlNPnVLYXnYhUF4BBljl9SYbAggggAACCCCAAAI1L7D2gvYp8bRfxYPba/6oaTDqAqbVpuC4lrmLbol6K9Rf+wIMsGr/jOkQAQQQQAABBBBAAIGyCXjq0Hi3Lc5e0XGxnKuvygZPIgQKETBlFNovQxs4Y1Rq2ZpCQrAHgXIJMMAqlzR5EEAAAQQQQAABBBCoA4HuVNtOLv1B0r510C4tIlALAs+52Smtc5/6vQ1+eCgvBKpTgAFWdZ4LVSGAAAIIIIAAAgggEEmBzlTbF810kVz8XSOSJ0jRdSlg+u+B3uATYy5etL4u+6fpSAjwL5VIHBNFIoAAAggggAACCCBQ/QJr5k6dHLfwAZNGV3+1VIgAAlsIbDS3o1vmPXUTKghUqwADrGo9GepCAAEEEEAAAQQQQCBCAn6NYt2PtH1P0qkRKptSEUDgRYE7Wkam32GfW7YBFASqUYABVjWeCjUhgAACCCCAAAIIIBAxgd4L2t+USftvJI2PWOmUiwACQwKheXhiy7wl/w8QBKpRgAFWNZ4KNSGAAAIIIIAAAgggECEBTynerSnflNu/yRSLUOmUigACWwqYHt7gPW8Zl1rZDQwC1SbAAKvaToR6EEAAAQQQQAABBBCImMD689reHIT6saQ9I1Y65SKAwNYDrC53/0zr3KevMuMTCXlzVJcAA6zqOg+qQQABBBBAAAEEEEAgUgL/OH1aw07bZ74oD8+VLB6p4ikWAQReKuAu+0MsEX58xL8//Sw8CFSTAAOsajoNakEAAQQQQAABBBBAIGIC3am2nVx+s2TTI1Y65SKAwCsIuLRa0sdaU4t/a+IqLN4k1SPAAKt6zoJKEEAAAQQQQAABBOpQwL/ZNrq3y9vToe0oD8cFQWyUuRo8DBsUC2SujWbhBpd3ZjxYGWb8uVisYWnr3CdWV8MtPj3z2j8ayq+Ui79b1OH7l5ZrVcB/tEG9n+VZWLV6vtHsi3/JRPPcqBoBBBBAAAEEEEAgAgIu2dqLpo4MBjJjEv0abXG1Zcz2Vqg9ZNrdXe0mjS6gFZerU2ZLJf+Hyx4NFD4cKFg4ELO1QW+w7vHVo9btf8U9AwXEznmLX7rjiO7epr/JtUfOm1iIAAJREHjepUNGphY/FoViqbE+BBhg1cc50yUCCCCAAAIIIIBAmQRSKQVn+qSd0hbbxxTsGcj3DOV7mts0mW8vlfRKpU5JiyQ9IdMjcntUQezhltFaaGcs3Fhsgs5U20kmXVXsuMRDAIHKC5h0UUtq8ZcrXwkVIDAkwACLdwICCCCAAAIIIIAAAkUQeD61Q0uDNR9ibkcH0utdPsFk41xKFiF8/iFcGZmtlelZuf9DCm6Jxft/23z2suX5B3v5jhVf2HFEc0vTfJMOKEY8YiCAQLUJ2KoeBdN3Sj35fLVVRj31KcAAqz7Pna4RQAABBBBAAAEEiiSwNtU2OhbYJwP3UzzUJAUKqvR5UKGZBjz062Kx+Lea/v7knXatMoUyrJ835cggtJ/KtF2hMdiHAALVLeBu/z5y3lNfq+4qqa5eBBhg1ctJ0ycCCCCAAAIIIIBAUQSynzHfNW+3sRb0T5freEkflGtUUYKXL8iATHdYRj+OB7Hbn1VmWXtqcV+u6f30aQ3dY9PfkusUmWK57mMdAghETuCRtHTQdqnF6yJXOQXXnAADrJo7UhpCAAEEEEAAAQQQKJWAp6aP6dGGI1zh0ZK/Q7LsM62i+zJlHwZ/n6TrAg9+/1dbdP9hKaW31VD33PZ93Pwnkt64rbX8PgIIRFfAXest8I+2zn3619HtgsprRYABVq2cJH0ggAACCCCAAAIIlEzAvzGxqbszcZRcH5f5GySNLVmyCgQ200aXFrvrj4kB+3bTV596+tXK8JSCLptyciD7rruaKlAuKRFAoEwCZsq47Mer3M/I5yrNMpVHmjoTYIBVZwdOuwgggAACCCCAAAL5CayZO3VywsLvSHqfpER+uyO32iWtV+DntLRk/tM+t2zDSzvwudNGdlv6CknHRa47CkYAgbwFTLpXbie3zHvqwbw3swGBIgowwCoiJqEQQAABBBBAAAEEakPAj1Vs7Z5TJ8Tdj7PAvyJpdG10llsXJku7ab7C4KKWlu677MznejbvXH/+1F2DTPhnSeNyi8YqBBCIsoBJvTJ9coQv/qmlFEa5F2qPtgADrGifH9UjgAACCCCAAAIIFFngH6dPa9hpzMCRsuDfzPwQ95q/6uo1BG2VSVcrsJ+MCBc9nP3La/e8tk+761tFZiccAghUsYC7rt64oeFTO1zyeFcVl0lpNS7AAKvGD5j2EEAAAQQQQAABBHIXWHPR1FGJvsz5ks2WtLMk/rwsS5v83sD94iZr+X2Peu92+d65q7ISAQSiLmCmpUE4cGDzvOXLot4L9UdXgH8hR/fsqBwBBBBAAAEEEECgiAJdZ0/ZQwn7haR95AyuXoF2wKTfuDSniOyEQgCB6Agc35pa/MvolEultSbAAKvWTpR+EEAAAQQQQAABBPISeCrV1ri92VFyv0DSbnltZjECCCBQJwJm9ocRc586yqTshz3wQqDsAgywyk5OQgQQQAABBBBAAIFqEfDU9JYu7z7DzE6TNL5a6qIOBBBAoAoFegc82GPMvEVLqrA2SqoDAQZYdXDItIgAAggggAACCCDwcoGu1C7jXJmLbeiWuGaMEEAAAQS2IeDhp1vnLfkOTghUQoABViXUyYkAAggggAACCCBQUYGer0zZOUza9yUdLSmoaDEkRwABBCIiYNKCltTiQyNSLmXWmAADrBo7UNpBAAEEEEAAAQQQeG2Btam2tkC6MBi68orhFW8YBBBAIFcB07Ohxw4elXpyYa5bWIdAsQQYYBVLkjgIIIAAAggggAACVS+w7uwp7UHcvmnSUQyvqv64KBABBKpMwF1d7nbaqPOe+mmVlUY5dSDAAKsODpkWEUAAAQQQQAABBKQNF7RPyaT9CpfeJYk/B/OmQAABBPIVMGUU2g9bpu//aZtzbSbf7axHYDgC/It7OHrsRQABBBBAAAEEEIiEQOfXXjfW+jf+0OSznNsGI3FmFIkAAlUrcGssHjup+ewnl1ZthRRWkwIMsGryWGkKAQQQQAABBBBAYLOAX7x7a9eGvnMCszPc1YAMAggggEDhAu7+pOQnjZy35M+FR2EnAvkLMMDK34wdCCCAAAIIIIAAAhERcMl6Uu2fDxXONVlLRMqmTAQQQKB6BVwbLAhOGXHuop+byau3UCqrNQEGWLV2ovSDAAIIIIAAAggg8IJA97ltx3ug70saDQsCCCCAQHEEXLpwtXRee2pxX3EiEgWBbQswwNq2ESsQQAABBBBAAAEEIiiw9rwpb4y7XS/XjhEsn5IRQACBqhVw1/VhY/ih0V9esrZqi6SwmhNggFVzR0pDCCCAAAIIIIAAAr0X7DYhkx74vuTvFw9t5w2BAAIIFFvgmVg89hYe5F5sVuK9lgADLN4fCCCAAAIIIIAAAjUl8FSqrXF78897aF8204iaao5mEEAAgeoQCOOBDm86d/GC6iiHKupBgAFWPZwyPSKAAAIIIIAAAnUksH5u21sC028k7VRHbdMqAgggUFYBa9ruCy1n3ff1siYlWV0LMMCq6+OneQQQQAABBBBAoLYE/FjFuvdqu0eu19dWZ3SDAAIIVJdAw/tSYeKAE38h6WJJD5tZWF0VUk2tCTDAqrUTpR8EEEAAAQQQQKBOBTyleLemfEmy8+uUgLYRQACB8ggEcTWd+HPFJh+Qzdct6UZJV0t6UNJyMxsoTyFkqScBBlj1dNr0igACCCCAAAII1LBAZ2rKgYHsGpcm1HCbtIYAAghUXCDY8XVq+tefykZsv2UtfZLulHSzpJsk3Wdm6YoXSwE1I8AAq2aOkkYQQAABBBBAAIH6FVg9d9rIhKW/Za4TZIrVrwSdI4AAAqUXSB50qpKHfkaKN7xSsuwga7mkuyT9p6TbGGSV/kzqIQMDrHo4ZXpEAAEEEEAAAQRqXGB9qu2IQLqKB7fX+EHTHgIIVFzARoxV44zLFNv10FxqyT4XKzvISmnh9Qt03/mBmprG9Ic2NnBv+ect3zGFYSB5xmPq81iyz3v7+8KY+postkGT13V2/L7VD91zBx9Mdux017yUNFcuU/Y/Q9/nVRcCDLDq4phpEgEEEEAAAQQQqF2BlV/cvbWpeeO3XTq5drukMwQQQKA6BOJT36aGGZfIRu6cW0HpXoXLbgnDR67q8Y1rW3Pb9MKqAbnWybQm+2WuNaG0KjAtzciWSrY0ZlrvofckkrEu9fv6R9IruqbPebg/zzwsj4AAA6wIHBIlIoAAAggggAACCLy6QO95uxyUCTO/kzQGJwQQQACBEgrEkkq+/ZNKHny6ZMG2E3mo8JnbFD7wHfnGtdten/eK7Ccf+nqXVplphfvgrYvLTLbUPVyazgRLmhP+pGZ2rOdqrbxxq24DA6yqOxIKQgABBBBAAAEEEMhHoCvV/ivJZ+ezh7UIIIAAAvkLZG8fbPqXHysYv09umwd6lLnvMoXLO3JbX5xVbrINMu8KQ3WZtNpNj5nrDpndmUg//6hxhVZxpMschQFWmcFJhwACCCCAAAIIIFA8ga7UpL2k2N+LF5FICCCAAAKvJhBrP1BNJ/wsZyDfsFKZjlPlfWty3lPqhWb2vLtfb4H9Ip5s7FB3S1rHXhua8TytUtsPNz4DrOEKsh8BBBBAAAEEEECgIgJ+jWJdj0y5ymT/WpECSIoAAgjUlYCpcc73Fd/jiJy7Dp/9izJ3/nvO6yuwcLVJ8zNu82Nh5v6BIFjStKrrOfvEPQMVqIWU2xBggMVbBAEEEEAAAQQQQCCSAl2pyXvKgpvkmhDJBigaAQQQiJBAMKZNzaf+UUo05Vx15t5LFD59fc7rK7zwOZPuDd3uds/c2R8k7ho565bVFa6J9FsIMMDi7YAAAggggAACCCAQSYHueW1nuSslqTGSDVA0AgggECGB5OFnDj7APeeXpzVw/RypJA9vz7mK/BfqlPz1AAAgAElEQVS6Bsx8pcueNbNb3PXzxMxD/m6WCvMPxo5iCjDAKqYmsRBAAAEEEEAAAQTKItCZGr99oMRVLnt/WRKSBAEEEKhjAWscqeZP/F42elLOCr7qfqX/9Nmc11fvQut3+S1B4BfGR9kdOrQjw/OyKnNaDLAq405WBBBAAAEEEEAAgWEIbEi1H5yWXyVp6jDCsBUBBBBAIAeB+N5Hq+HIr8oaWnJYPbQk8+D3FD7565zXR2Oh3WvuP/d4eGsiGPW4HXVdbzTqro0qGWDVxjnSBQIIIIAAAgggUDcCnlK809s+GQt0mbsSddM4jSKAAAIVELBksxreO0/x18+SLMitgvQGpRd8St65KLf1UVplSsv1j8B1i4Lgj7Fg459txu1dUWohqrUywIrqyVE3AggggAACCCBQpwI+d9rIbktfIem4OiWgbQQQQKBsArGd91LDMZcqGPe6nHP6moeVzn764Mb1Oe+J3kILTVoRuu5X4FcmB1b+0eY83B+9PqJTMQOs6JwVlSKAAAIIIIAAAghI6r1g4oQwE7/L+fRB3g8IIIBAaQUsUOKNx6rhyAukIJ5zrvAf1yjz6I+lzMac90R9oclu85h/PjFS9+uwjoxJHvWeqq1+BljVdiLUgwACCCCAAAIIIPCaAuvmtr87Zn4jTAgggAACpRXIPry94ehLFN/jPbknyvQpc+9lCpfdqjqc4fS59CuXX92QTvzV5txcy5eg5f6eKNJKBlhFgiQMAggggAACCCCAQHkE1qfavhFItfDRVuUBIwsCCCBQoECw4x5qOvEXsqZROUfwrqeVueci+drHct5TawvN7BkP/SYL7P/FJ3XeZvvfM1BrPVaiHwZYlVAnJwIIIIAAAggggEDBAl1z2+6X6fUFB2AjAggggEBOAsnDz1Ty7Z/Mae3mRb7iDqXvuUjq78xrXw0udpktDeS/G5C+3jSzY3EN9ljWlhhglZWbZAgggAACCCCAAALDEdj0APe1knL8KKzhZGMvAgggUMcCsYRGfO5OWfOY3BHCtDILr1H48JW576mDlS4tU+hfTLZ1/4qrsQo/cAZYhduxEwEEEEAAAQQQQKDMAt1zJ73bLcbzr8rsTjoEEKg/gfg+M9U48xv5NT7Qrcw9Fyp89i/57auT1Wa6TmFwWTw54m476rreOmm7aG0ywCoaJYEQQAABBBBAAAEESi3QObftS2a6sNR5iI8AAgjUtUC8QU0f+olibW/Ji8F7Vyi94JNSX/ZCWV6vIODuWqzA/l8m9CuaZ3csQyl3AQZYuVuxEgEEEEAAAQQQQKDCAt3z2n7uruMrXAbpEUAAgZoWiE0+QI3H/TC/2weznzm4fL7Sfz2/Hj99MN/3wwaXPxpznxebfdt1Vocf15gvWHY9A6xC1NiDAAIIIIAAAgggUBGBrlTbg5L2rkhykiKAAAJ1IWBKvvOLSr71Y1IQz6vjzN1fVbj05rz21PniPpe+lTRdbDM71tW5xTbbZ4C1TSIWIIAAAggggAACCFSDwJqLpo5KbAz/LtekaqiHGhBAAIFaFAhGT1LDMZcqNuXN+bWX6VP6hg/K+9fnt4/VA2b6g9LhpXHf8S6bc20GklcWYIDFOwMBBBBAAAEEEEAgEgKdZ7fvbnHvkLRTJAqmSAQQQCByAqb4696lhqMukjVvl1f1/vzdSt9+Zl57WPyigMufsEA/TDQ2/pcdceMabF4uwACLdwUCCCCAAAIIIIBAJAQ6U1MONOm3km0fiYIpEgEEEIiYgCWalHzHF5V484l5P3Eo88A3FS76XcQ6rrpyuyX/n4zHzm2afevTVVddhQtigFXhAyA9AggggAACCCCAQG4CPfOmvDcM7Wcy5XdZQG7hWYUAAgjUvYC17qimk69RsN3k/Cwy/Urf8hF5z/L89rH6lQXc/5IIYifomFsXmclhGhJggMU7AQEEEEAAAQQQQCASAl3z2o5z1xUmjYxEwRSJAAIIREwgsc9MNcz8Rt5V+6oHlL7rXKm/M++9bHhVgcUe2heSY/1GO6yjGycGWLwHEEAAAQQQQAABBCIi0H1e20nu+o5crREpmTIRQACB6AhYoObs1VeT9su75vCJXyjz2E+kTH/ee9nwmgKrXfadZDr9A5vzp5X1bsUVWPX+DqB/BBBAAAEEEEAgIgJd89o+4aG+bqYRESmZMhFAAIHICMQmvnHw9kEF8fxqTvcqc+9lCpdnP2ODu93yw8tpdXcg/SyWjp9lc26u6494ZICV0/uFRQgggAACCCCAAAKVFuia13663C+S1FzpWsiPAAII1JaAqWHGJUq84QN5t+Wdi5S552L5uify3suG3AXc7MZe+QdHz+xYb3U6KWSAlfv7hZUIIIAAAggggAACFRToSrV/SvKLGWBV8BBIjQACNSmQfWh700n/LRu5U979hc/+WZl7L5H6u/Ley4a8Be6QZT5z+wOxew9LdaTz3h3xDQywIn6AlI8AAggggAACCNSLQNe89tNMfrE7txDWy5nTJwIIlEPAlHjLR9Rw+BekRGN+CcMBDT7/6tGfcPtgfnIFrvZQCu42D74Uz4y5zeZcmykwUCS3McCK5LFRNAIIIIAAAgggUH8CXan2j0v6uuQt9dc9HSOAAAKlEbCWHdR41EWK7XaY8v6ct4Eupe/+mnzFnaUpjqivIOChuz1h0snJ2R11Bc8Ai/9BIIAAAggggAACCERCoPu89g+HGf++GZ9CGIkDo0gEEIiEQHy3w9Vw9CWyEWPzrtc3PK/M/FPlG9fmvZcNwxMwaZ0HdkTi/kP+ZqlUOLxo0djNACsa50SVCCCAAAIIIIBA3Qv0zpsyM+P2Y0mj6x4DAAQQQKAIApZsVsO7z1Z8v+MLihY+d5cyf/lSQXvZNHwBlz0j6ZNLljXesOsZ128cfsTqjsAAq7rPh+oQQAABBBBAAAEENgl0zZ1yuAK7Rq78LxNAEQEEEEDgZQKxiW9U4/FXypoL+8dq5uErBp+BxatCAiZ31xMe+pkN4bg/1vozsRhgVeh9RloEEEAAAQQQQACB/AS6U21vcOlGSePy28lqBBBAAIFXEsgOr+K7vbNgnPRtp8tXP1TwfjYWRcDlelJB5kPJmX/6a1EiVmkQBlhVejCUhQACCCCAAAIIILC1QO/caRMzlr5L0nhsEEAAAQSGJxDf5e1q/PDVwwjiGrjuSCm9YRgx2Fo0AddKT+rg5Ps7HjeTFy1uFQVigFVFh0EpCCCAAAIIIIAAAq8u4KnpyW7reUiuXXFCAAEEEChcwJpGq/H4Hyk2ab+Cg3jPMqVv+teC97Ox+AImPeqhnZx4aP4/H+yumnuwOwOs4r9niIgAAggggAACCCBQIoHueW03uetdJQpPWAQQQKD2BSymxAEfUvKdZ8kSzQX36yvuVPqOLxe8n40lEHAPZUGHhzqj4QPzHy5BhoqGZIBVUX6SI4AAAggggAACCOQj0J1q/7rLP5fPHtYigAACCLwoEOy4hxqPvljB+L0kFT4SCBf9RpkHvgNt9QkMmPTbuOkUm9mxrvrKK7yiwt+thedkJwIIIIAAAggggAACBQl0p6b+iyv8WUGb2YQAAgjUu0C8UQ2HfVaJAz8+bInMI1cqfPznw45DgBIJhPqPRFvXZ23/ewZKlKHsYRlglZ2chAgggAACCCCAAAKFCnR+bepu1h8+NqzLBgpNzj4EEEAg4gKx9req8djvK/sMrOG+Mvd9XeHi3w83DPtLJWByC31uPDny63bUdb2lSlPOuAywyqlNLgQQQAABBBBAAIFhCXhK8W61PyX5xGEFYjMCCCBQZwLWsoOaPnilggmvL0rnmb9doHDZLUWJRZCSCayT7POJ7fxqO6wjXbIsZQrMAKtM0KRBAAEEEEAAAQQQKI7A+rltPw9MxxcnGlEQQACB2hewWFINMy5RfO+ji3YBa/quufJnbqt9vCh3aHK5HjfplMSsjj9HuZVs7Qywon6C1I8AAggggAACCERYwK9RbOGfpsWnje2NrfHmeNz64oGCnUKzKXHZZHdNkbSzS9n7XQa/zDTJXWMj3DalI4AAAuUTsECJA/5VDe88S0o0FS1v5q/zFC7vKFo8ApVOwGQ3xWPBCTbjludKl6X0kRlgld6YDAgggAACCCCAAAKbBDy1Q8v6WPMOlgl2iMvGpT2cFpjvYlK7y9rlapepeH/DQh4BBBCoZwEzxSYfoIYjL1Cww65Flcjcc5HCJTcWNSbBSirwH6tWtn5x/Cei+zwsBlglfX8QHAEEEEAAAQQQQKB37oSJA0H89THF9gk9fF32CipJE+WaIKkZIQQQQACB0ghY6zg1HnWRYtMOkSwoapLMg99T+OSvixqTYCUVGJDsrMTM+d+y7K2FEXwxwIrgoVEyAggggAACCCBQzQL+zz8hb5g7bYIH6SMzoWaY+a6SjTRppEuN1Vw7tSGAAAI1I2AxNc76puJ7vlcK4kVvK3zi58o8fGXR4xKwdAIuLQ/MTkzMnB/Jp+8zwCrde4PICCCAAAIIIIBAXQhkB1ZKtTX0SKPDUO81sw/J/O2SknUBQJMIIIBAtQnE4kq+40wl3/rxklWW/QTC7CcR8oqWgJlujMeDj9pRty6PVuU8xD1q50W9CCCAAAIIIIBA1Qh4qq2xOxPuolhsusnf49IRMu0s54OCquaQKAQBBOpPINGoxBvmKPnOL8qSI0rWv69fqPStp5QsPoFLJODq80AXJdfpYju5o69EWUoSliuwSsJKUAQQQAABBBBAoHYF/DvTGnpWZw5x8/ea6SB37S1uDazdA6czBBCIjkAQV3yPI9Twzi/JRmcfM1jCV6ZPA3+cJaU3lDAJoUsh4K4VgYUfSsy67dZSxC9VTAZYpZIlLgIIIIAAAgggUGMC2cFV95r0TEmnSnqd5GMlK/6DVWrMjXYQQACBcgnE2g9U4zGXyUbupHLccJVecLp8zUPlao88xRV4IJFoPdCOis6nEjLAKu4bgGgIIIAAAggggEBNCXhKgRqntnb1+SGBdI7L95VU3I+yqikxmkEAAQQqIGCBgolvUNOHry7pbYMv7Sx89CplHru6Ag2TshgCrvCyZHrHL9mcazPFiFfqGAywSi1MfAQQQAABBBBAIIIC2cHVhvguE8JM+mC5fcRlB0vO1VYRPEtKRgCBGheIJTR45dX7vyYbNb6szfrqh5T+82elMF3WvCQrjoBJqzOhfahh9vybzOTFiVq6KAywSmdLZAQQQAABBBBAIJICnpre0qWeDwTSsS4dKqk5ko1QNAIIIFDrAtlnXu12uJKHf17B9rtKVua/4m9cq/TtX1T2ge68oijgobv9IRMLT2s+5ral1d5Bmd/d1c5BfQgggAACCCCAQH0LdJ43+aAgDL7m0j6SRpXlISr1TU73CCCAQMEC8T3eq4b3zpW1jCv/8CpbdaZfmUevUviPXxbcAxsrLGDqkQefTaTH/rjabyVkgFXh9wrpEUAAAQQQQACBSgtkbxdc49PGJyzzaZN/ik8UrPSJkB8BBBDYhkAsqcQ+x6jh/RdKQWUfS+jP3aX0PRdJG9dxbJEV8HvT6djRzXNuXV7NLTDAqubToTYEEEAAAQQQQKDEAusunLxdfKO9N7TgM+a+Hw9oLzE44RFAAIFhCtiIsUrsd7ySB/2blKyCO7z7Vilz39cVrrhLqv7HKA1Tv3a3u2teclbHvGp+FhYDrNp9/9EZAggggAACCCDwqgLZq6461b6/yU8z6RhJI+FCAAEEEKhugWDUBCUP/Yxie7xH1tBaJcW6wsV/VObv/yGlN1RJTZSRv4CtUczfk5zRcXf+e8uzgwFWeZzJggACCCCAAAIIVI2Ap6Yne9X94VB2lpl2cVesaoqjEAQQQACBVxQIdtpTjTMuVbDDblKsyj4UdqBH6dvPlK99lNOLsoD7/yUy495vc67tr8Y2GGBV46lQEwIIIIAAAgggUAKBf94eYLp46sjuvvA8mZ8mNwZXJXAmJAIIIFBUgXiD4ru9Qw1HXiBr3q6ooYsZzFfdP/iJhAoHihmWWGUUMGmdefCR+Oxbf1PGtDmnYoCVMxULEUAAAQQQQACB6Ap4qq2x2/1Amc2VdHB0O6FyBBBAoH4EgjFTFN/3g0rs+0FZ0+iqbzx86IfKLPyV5Jmqr5UCX0nAQpP/T1yxU23WLaurzYgBVrWdCPUggAACCCCAAAJFFsgOr3otODmUf1bu0yTxZ8AiGxMOAQQQKKpAEFd893cq8aYTFZu0nxRLFDV8yYL1rVbm3ksUPvfXkqUgcMkFnnPZJ5Iz5/+u2h7ozh9eSn72JEAAAQQQQAABBCon4Jfvl+h+dvVlMp0o16jKVUJmBBBAAIFcBKx5jJIHfULx189W9hMHo/Vy+aoHlLnvG/LupdEqnWo3C7hkv0w0Np5q77u+s5pYGGBV02lQCwIIIIAAAgggUCSB7POuNqSmTQgtfaVLRxQpLGEQQAABBEolEG9UbPzeajjiHAU7712qLGWJGy65QZm//0Dqr6r5R1l6r5EkG2WZg5Mz/1RVl9IxwKqRdxdtIIAAAggggAACL/xfpykFncHU/YLQv2bmh/Epg7w3EEAAgSoWiDcotuPrBq+4ir9xjizeUMXF5liahwoX/Vbh41fLN67LcRPLqknApF/FZx56nFkqrJa6GGBVy0lQBwIIIIAAAgggUCSBrlT7wS6/2FwHyMQnDRbJlTAIIIBAsQWCsW1Dg6vXvUfB9rtIFhQ7ReXiZYdYS29W+NhP5D3PVq4OMhckYNIGt8yh1XQVFgOsgo6STQgggAACCCCAQHUKdM9rf5e7/0SmneU8rL06T4mqEECg3gWseTsl3nSCEm+YM/Scq1q46uqVDtUz8pX3KvP378s7F9f7sUeufwvs2viM+f+8CkteDcUzwKqGU6AGBBBAAAEEEEBgmAKeUrzXprwndPsvSVF76u8wu2c7AgggEAGBWELWOErxXQ9X8u2flI2ZEoGii1Oidy9ReP83Fa5+RAr7ixOUKKUXcK2UYkcmZ9/yt9In23YGBljbNmIFAggggAACCCBQ1QJ3f3y/xO47rzpKZhdK2q2qi6U4BBBAoM4ErKFVwY67K9Z2oOLT36dgXPYf03X4V/HMBoVP/kbh0luUHWgpTNfZOyGC7boGLPBvxp/vPts+cc9ApTuow//VVJqc/AgggAACCCCAQHEFes6f8r5MOviWme9a3MhEQwABBBAoVCAYNUGx9gMHv4JJ+yoYPbG2nnFVCEz2lsL1TypcvkC+5CZ536pCorCnvAK3J2I6yWZ0LCxv2pdnY4BV6RMgPwIIIIAAAgggMAyBzrmT3xZY8CuXdhxGGLYigAACCBRDIIgrNuVNSrzhA4pN3l9q2k6WbGZw9VLbzEZ532qFS26QL/6DvG9NMfSJUQIBM+8MXR9LzlrwK1Nln4XFAKsEB0xIBBBAAAEEEECg1AKeUrBB7fuH0q9dPrHU+YiPAAIIILClgEmxuCz78PV44+AnCMZ2e4fie7xbwXb182yrorwn+rsULu+QL7leYfdyKbNx6DlZXhXPDS9Ki9EPYlcm0v45m9PRXcleGGBVUp/cCCCAAAIIIIBAAQLusp55ba932fckP7A+H6ZSABxbEEAAgUIEzGTxRqlxpKxp9NBX6w4KxrQr2GkPxXbaSzZqvBTEConOns0C7vLOhfLVD8vX/UPe+5y0cY3U3ykf6B4abPGqiIBLSz2mwxsrfBshA6yKHD9JEUAAAQQQQACBwgW6UruMc2WuMNmRkscLj8ROBBBAoAICFgzeUmebflSQ/XVs6Da7wZ9v/ooN/nrrda+0NrvXZNkYL+wfimdbxcvGH1q7db7Yy3MEcSnRLGtsGRpYNY6SNWW/tpONGDv4pezVV7xKI+AZaeO6wdsMB3/s75L618v7O6V076avPimzQZ7eIG35tfl7PCS+uGdjOj05s+N7xQ2aXzQGWPl5sRoBBBBAAAEEEKioQPbWwR5r/4l7eLxkDK8qehokR2A4AtkhSiCLZQcy8U2DlZgUyw5Y4rLsoGXzYCc7TAliQ98bHNK85Gvz/s1rXrJuaF82xuYBTnZ/fGhosynf5piDQ6DB722Rw2KyWPzF7w0OmjbXuGnd4PotcmR/nt23udYt42U/gW/wb6LZ/3rx5y/85TQ7YNr8KX2DP9+8NvvtLX79QoxNv7/lr4uwb2j4tamvF+IN58zZOywBD6XsYGvwx81fm36tUL7V98OhK7b6u+UDXdLgV/fQV3/X0BVd2e9t/vnmHzN9wyqxpjeb3ZOcOX//SvbIAKuS+uRGAAEEEEAAAQTyEPDL90t0L1/9FQVK5bGNpXUpkH0+z6a/eMs2jQI2DwpeaRiw5fe2+PkLw4VtfG+rv9xv+ivGS7/34nTixYHEpoHDC0OOFwYvWw5s4psGKi8dmmwxUHlhcLNpELRpYDM4gBgcoLz4fds0WHlhCLTlkGXz2heGLZsHS9lBT3bgs3mos2We7HBn84Bo6PeHcrxK7sGaNv3+5iFNXb5HaRqBKhQIBzYNvTq3GHBtHnRlf8wOwLK3NA59b3AIlr36yzcN0LLPOB8cpGWf37V5yJb9XkbKxo74y6W9G2Z1PFSpNhhgVUqevAgggAACCCCAQB4Cnjo03m2LZ7vrhyaNzmMrS+tMIHurU2zSvgp22lPWMm6LK3c23Zb1klustrylavCKnJf9/uarUIZ+tOxganBA9PJbuYb2v9LvbXlrV/aWsK1/XWdHRLsIIFBLAtnhVHqLWxkz2Vsas7c5bvreQK+0ca18/UKFK+8fGnpF9OXSZQ2zOs6sVPkMsColT14EEEAAAQQQQCAPgZ7zph7gYfhDN71RzmUbedDV1dJgzBQlD/ucYm0HylrG8nz/ujp9mkUAgaoWGOhWuHyBMo/8aPC5XlF8ufyRZDLzNnv/n9dWon4GWJVQJycCCCCAAAIIIJCHwNpU2+i4/EqZzZSLj7nKw66elmYfKt103A8VTNx36OooXggggAAC1SWQ6VPm4f9U+OSvqquu3KtZGwb24cZj5v8x9y3FW8kAq3iWREIAAQQQQAABBIoukH1oe3fQ/km5f4crr4rOWzsBzZR822lKHvwpPhmtdk6VThBAoAYFwuUdytxz0dBD5iP3sn4L/NL4jI5zzLIP/CrviwFWeb3JhgACCCCAAAII5CXQlWo7VK7/lWlUXhtZXFcC1tiqhhmXKf66d9dV3zSLAAIIRE0gfPYvytx78eDD4KP4ctd1Gy128shZt6wud/0MsMotTj4EEEAAAQQQQCBHgb7U5Kn9Cn5h0pty3MKyOhWwlh3UOONSxaYdUqcCtI0AAghEQcAVLrlRmfu+KYX9USj45TW6HlZcJyVndNxd7gYYYJVbnHwIIIAAAggggEAOAp6anuzx7q+52RmSEjlsYUk9C8Qb1DjjEsX3OrqeFegdAQQQqG6BgR6l77tUvnxBddf5mtV5rwf2kYZjOv673E0wwCq3OPkQQAABBBBAAIFtCLhkPamp7wgVXmlSG2AI5CIQ33uGGo6YK2veLpflrEEAAQQQKKdApk/h4j8o8/fvSx6WM3PRc7nZJcnRPtcO6+grevDXCMgAq5za5EIAAQQQQAABBHIQWPelydvFmoLL5To2h+UsQWBIIJZQ8k0nKL7PLNnoSbJE49CnEZrxqYS8RxBAAIFKCIQZ+UCn1L1M2Ye3h0/9Vgozlaik2DlvSTQ3zLEjblxT7MCvFY8BVjm1yYUAAggggAACCOQg0JlqO8lc35epKYflLEHgRQELFIzbXcF2k6RE0xbDq6EhlmUHWkF2qBUbGmoN/jz7/dgLP9/697Lfz+4dWm9b7h3cH5MNDsg2798Ud9PvDQ3QNuV4Ye+W6zfVsqmObJyhHDnU+MK6TeuDTTW+NDfvDwQQQGC4Ap6R0hvlmV4p3SelNwx9ZbI/9skHf579cdPvb/r+4Pf6u6TupfLeFZG/8mqLf9k8nwgy+9sxty0dLm0++xlg5aPFWgQQQAABBBBAoMQCa1Nto+PSQ5ImlDgV4etSIDs8yja+xV8DsgOowdemH1/119klL1879J1X27tlrjxzb1Xn5r251Lm5luzaLYZu2QFXEB8a1A0O3uJSLDv0yn5/6Pds8Mctv7fF97dYN7h/cICWjfca+wcHci/+/lDu+BY5N9eUrWfzui3ibfW9oVyDQ8jYy2NstT+7hhcCCLyCgEsDvfKBLmmgW+rvlqezP3ZJ6W55f/fQ9we65YO/v2ldpm/wyikfvPUvlNw3DaOyP3+tX3utnoKHaX9P45wF/1fOBhlglVObXAgggAACCCCAwGsI+DWKdT3adqm5PgsUAgggULCA2aaB2JYDtqHB3NYDtU3f22qQ9+JQbWi492KMwb0vGaptPXjLDtayQ8Mth4VDwzZ7IcfWNb1s/+CQbuu8Q4O72BYDx00DvK1iZod22b7zGMhmB69bDko33267qUeLJQZvzR28IpBXGQV86DY7T2/6MfvzoUGRbzk8yg6VXjpo2jx8yg6i0l1DA6rB7w0Nonygp4augirjkbzyKPCrDbM6zi5nFQywyqlNLgQQQAABBBBA4DUEes+b8taM22/k2hEoBBBAAIE8BV52m6xtuqJui9tSX/G22c23ssZkyWapcaSC5jGy1nGyUROGfmwZp2DkTrLWHRlo5Xks21wepuUb10p9a4Z+3LhO6lsp71s9+HPv79x0y1729ryhW/d88Iqo9DZDs6CkArcnZ3W8raQZXhKcAVY5tcmFAAIIIIAAAgi8ioCnprd0q+frJvuIy+NAIYAAAghUg4DJGlqGhlitOyoY06bYpP0Ua3uzbOT4LW6rrYZaI1RDuke+bqF83RPyzkXy3ueljWvkfeuGrpbKPnOKV1ULmLw3nrYdbU5Hd7kKZYBVLmnyIIAAAggggAACryHQeV772839Krl2AQoBBBBAoEoFsld5ZT8goXGk4u0HKg0SizsAACAASURBVLH/hxRMeAODrByPy9c8onDp/8lX3jd0tVVmoxT2Dz1TilfkBNKhvaX5A/PvKlfhDLDKJU0eBBBAAAEEEEDgVQSWfnZi06hRiXkmPxMkBBBAAIEICQRxxaYepORBn1Cw816yhtYIFV/qUrMPTO8ZvBXQV9yp8Okb5F2LS52U+GUVCP4tOevWH5YrJQOsckmTBwEEEEAAAQQQeBWBrrOn7GHx4AaXTwYJAQQQQCB6AtnbDGO7v1OJ189WbOK+UvZZWvX68rS851llr7byFX9RuPIBqX99vWrUet8/Ss7qOKVcTTLAKpc0eRBAAAEEEEAAgVcR6Ey1f9XkXwEIAQQQQCDaAjZyZ8X3er+SB5woGz0h2s0UUP3gc62Wdyhcdb98/cKhWwR51a6A6e7EAx1vtlT24yFL/2KAVXpjMiCAAAIIIIAAAq8qsD41cYx5fJGZRsGEAAIIIFADArGEYjvvpYajL1aww6410NC2W/DeZxU+9lOFK+6QBrr5hMBtk9XECpOWxWOx/W3GLc+VoyEGWOVQJgcCCCCAAAIIIPAKAi5Z97ntZyvw8wBCAAEEEKgtAWsapcZZ31Ss/SAplqyt5rLdhOnB51uFy/5P4cL/kbIPZedVXwKulYrrfckZHXeXo3EGWOVQJgcCCCCAAAIIIPAKAt2ptp1C2QKT7wYQAggggEDtCVjTaCUP/4Li+xwjS46ojQbd5b3PyJ/9i8Knr5d3PlUbfdFFIQLrgsBPiB+z4LpCNue7hwFWvmKsRwABBBBAAAEEiiSwfm77CSb/npn42KoimRIGAQQQqDYBax2n5CGfVuINx0qxRLWVl1894YDCZxYoXPxH+eqHpHAgv/2sri0BV08ofb5xdsfl5WiMAVY5lMmBAAIIIIAAAgi8RMBT45u7veEKmf+LJP5MxjsEAQQQqGGB7JVYjbO/rdguB0e2S9/wvDIPfk/+/D1SeoMkj2wvFF4sAe93twsbZnekihXxteLwh6VyKJMDAQQQQAABBBB4iUDPeVMPCD28Sq7p4CCAAAII1L6ANW2nppOvUbDDtGg1m+5V+MyflPn7D6T+9dGqnWpLLGChXD9KzJp/qlnpJ5oMsEp8nIRHAAEEEEAAAQReKuDHKta9V9vH5Pq2pAaEEEAAAQTqQyA2+YDBK7Fs5M6RaDj7fKtw0f8qXHaLNNATiZopsrwCLrs2mWg5yY66rrfUmRlglVqY+AgggAACCCCAwEsEVs+dNjJp6R9Iyt4+yAsBBBBAoF4E4kkl3/oxJQ8+XYo3Vm/XYXpwaBUu+o183ULJM9VbK5VVVMClP/SnMye3zvnTylIXwgCr1MLERwABBBBAAAEEXjbAmjCxIUj81V3R+L/gOUEEEEAAgaIJBNtNUcOMSxSb8qaixSxqoHSvMo//TOFTv5MGuosammC1KOC3ptPpk5vn3L6k1N0xwCq1MPERQAABBBBAAIGXCHSfN+VfPLSfAYMAAgggUJ8Cif0/pIZ3f0VKNFcVQPZB7eGj/6VwyY1cdVVVJ1PVxdwRxuzkxhnzHy91lQywSi1MfAQQQAABBBBA4CUCXam230o6GhgEEEAAgfoUsOYxavrQVQrG71MdAB7KV/9d4WNXK1x5b3XURBWREHDpATOdlJzZcX+pC2aAVWph4iOAAAIIIIAAAlsIrDlr6qhEc/i0XKOAQQABBBCoX4H4G+eo8eiLKw+Qfd7V8o7B4ZV3L618PVQQKQGXPxFIJyVmLbij1IUzwCq1MPERQAABBBBAAIEtBDpT7UebPHsFFi8EEEAAgXoWiCfVfMYCBa07VU7BM0MPa3/oCnnf6srVQebICrj0dGA6KTGzo6PUTTDAKrUw8RFAAAEEEEAAgS0Eeua1XxG6nwIKAggggAACyUM/o+Qhn64MRKZf4bL5Ch/8jjzdW5kayBp5AZeWBWYnJWbOv6XUzTDAKrUw8RFAAAEEEEAAgU0Cnhrf3K3kPZJeBwoCCCCAAALBztPVdNI1smSZH+Y+0K1w0W+VefxqKdPPQSBQsIBLzwYWnJSYeetNBQfJcSMDrByhWIYAAggggAACCAxXYO05U94Yj9kNksYNNxb7EUAAAQSiLzD4MPfjr1Qwcd/yNTPQo8zCaxUuvEZKbyhfXjLVqIA/n72FMD5zwfWlbpABVqmFiY8AAggggAACCGwSWD+3/QSTf89MraAggAACCCCgRJMa3nGmEm8+uTwY4YDCRf+rzKNXMbwqj3g9ZFmdfYh7fFbH70vdLAOsUgsTHwEEEEAAAQQQkOSS9aSmXOzSZyWLg4IAAggggIDMlNj3g2o48gLJgtKCZD9tcOnNyjzwLSmzsbS5iF5PAusC2UnxWfNL/gE1DLDq6W1FrwgggAACCCBQMYGVF+/e2rih/yrJZ1esCBIjgAACCFSdQGzXw9Q441LZiLGlqy07vFpyo8K/f0+e7itdHiLXowADrHo8dXpGAAEEEEAAgdoV6EtNnjrgwU9kenvtdklnCCCAAAL5CsQmvEENx1yqYPtp+W7Ncb0rXL5A4YPfk/etznEPyxDIVcDXBIFOih+z4LpcdxS6jiuwCpVjHwIIIIAAAgggkIdA73ltb86E+gmfQJgHGksRQACBOhAIxrarYcalik3aryTd+tpHlbn3Unnn4qEb2nkhUFyBVYHbSfHZ8/9Q3LAvj8YAq9TCxEcAAQQQQAABBCR1ntt+lAV+laQS3iMCNQIIIIBA1ASsdcfBWwhju5TgAt0Nzw8Or8Ln744aC/VGRMBMz5n8ZD6FMCIHRpkIIIAAAggggMBrCbjLus6b8hEL7XKZYmghgAACCCCwWcAaRw7eQhjf/d3FRUn3KfPgtxU+fUNx4xINgS0E3LU8iOmkxDEdN5cahiuwSi1MfAQQQAABBBCoewG/fL9E94o1X5T7BXWPAQACCCCAwNYCiSY1ZgdYex5ZRBlX+PjPlHn0vyRPFzEuoRB4qYAtMreTE7Nvva3UNgywSi1MfAQQQAABBBCoewFPjW/u9oZLZH5a3WMAgAACCCCwtUAsocZjLlN8r6OLJuMr7lD63kukjeuKFpNACLyKwGNp18nNszvuLLUQA6xSCxMfAQQQQAABBOpewC+aOqp7o/+n3GfXPQYACCCAAAJbC8QbBp+BFd/rqKLIePcyZe67VL7qwaLEIwgC2xB4QGF4cvIDt91XaikGWKUWJj4CCCCAAAII1L1AZ2q37aWB/zX5QXWPAQACCCCAwFYClmhSQ/YKrD3fN3yZzEaFj16lzJO/lkJuHRw+KBFyELjTQ53c8IGOx3JYO6wlDLCGxcdmBBBAAAEEEEBg2wLPp9p2anTdaqY9tr2aFQgggAAC9SRgTaPUMOMyxXd/57Db9pX3Kv3X86T+9cOORQAEchEw0y0DFp7cfMxtS3NZP5w1DLCGo8deBBBAAAEEEEAgB4FV/z5xQkMi/ldJ43NYzhIEEEAAgToSsNYdB28hjO3y9uF1HQ4oPf/j8s7Fw4vDbgTyEHDXdclMw0k258Y1eWwraCkDrILY2IQAAggggAACCOQusGbu1MlxZR4xsxG572IlAggggEA9CARjp6rhmEsVm7hv4e2GaWUevUrhEz8vPAY7EShIwH6xfL1/pP3kjr6CtuexiQFWHlgsRQABBBBAAAEEChHoTE3dzRRmnw3Bn70KAWQPAgggUMMCsQn7DN5CGOywa8Fd+sr7lf7bPD51sGBBNhYk4B7K7AfJWR2fKmh/npv4Q1SeYCxHAAEEEEAAAQTyFVh3zuT9YrHg7nz3sR4BBBBAoPYF4rscPHgFlrWMK6zZgW5lHvyuwqU3Sx4WFoNdCBQmsNGk8xOzOr5a2Pb8djHAys+L1QgggAACCCCAQN4CnakpB5rs9rw3sgEBBBBAoOYF4vscM/gMLAXxgnr15/+m9D0XS32rC9rPJgSGIdAt2aeTs+b/eBgxct7KACtnKhYigAACCCCAAAKFCXSdO+UwBXZrYbvZhQACCCBQswKxhJJv+zclD/1sYS2me5V54LsKl9xQ2H52ITA8gbWh+YcaZy64fnhhctvNACs3J1YhgAACCCCAAAIFC6xPtR0RSGX5w13BRbIRAQQQQKDsAtbQqoajLlR8+pEF5fZVDyh959nSQHdB+9mEwHAETFoRpjPvaJjzp0eGEyfXvQywcpViHQIIIIAAAgggUKBAz7wpR4Zuvy9wO9sQQAABBGpUwFp2UNOJv1Cw/S4FdZi+48vyFXcWtJdNCAxbwLQ40Zzcy95zU8+wY+UQgAFWDkgsQQABBBBAAAEEhiPAFVjD0WMvAgggULsCwc57q/mU/5UsyLtJX/Oo0rd9ige35y3HhuIJ2ILkrPmHFi/ea0digFUu6f/P3pnAyVFUf/z3amb2CDkkyYIKgnJ5gIoGxUCy0z27JETl1BVBxYTTA7xARQ5ZQJFDBRQQUA5RFA3iESUSdqZ7NgkhQFCR88+hXIJkubIhe8xMv//WHjGE3cz0THdNz+7rz4f/H5mq9159q3p2+tevXokfISAEhIAQEAJCYMISWH/WDi3MqmPCApCBCwEhIASEwKgE6ppPQJ19kn86XEDhru/Ae8b131d6CIGACHhMP274mPOlgMwVNSMCVlFE0kAICAEhIASEgBAQApUR2HDmTnMK5C2vzIr0FgJCQAgIgfFGYNIxv4fabk/fw+JXHkXh9m+Ce1/03Vc6CIGgCBSYj2z8WPYXQdkrZkcErGKE5HMhIASEgBAQAkJACFRI4KX2t+4ZB/5WoRnpLgSEgBAQAuOIAE17E7Y60QVidT5HxfAeuh6Fh28AvJzPvtJcCARHwIvROxoOch4OzuKWLYmAZYq0+BECQkAICAEhIAQmLIHe9h12ykE9CkB+e03YVSADFwJCQAi8lkDi/Yeh/oDz/GPpeR6Fey6A9/wa/32lhxAIjsDLiXvdGdQOLziTImCZYil+hIAQEAJCQAgIASEwKoEXz9xphwS8B0GYJIiEgBAQAkJACIAIDZ+4EvF37OcTBoOfW4XCPd8H973ks680FwLBESDC0sQh7oeDs1jckrwFLM5IWggBISAEhIAQEAJCoCICr575ljd7FLsTwHYVGZLOQkAICAEhMC4I0ORtMOmYm0HTfP5ZKPTBe+BqFB5dPC44yCBqlwABpyQOdc83OQIRsEzSFl9CQAgIASEgBITAhCTQ3b7zNuDCMhDeOyEByKCFgBAQAkLgNQTib29F/cE/ADVM9Uemtwv55V8Br3/GXz9pLQSCJcAE3jdxaHZVsGa3bE0ELJO0xZcQEAJCQAgIASEwIQms+9Z2M6gh/hswtUxIADJoISAEhIAQeA2ButTJqNvnOCCW8EWGn/wr8msuAMC++kljIRAoAcJT+ZyaPekTGaNKqghYgc6iGBMCQkAICAEhIASEwOsJvPjNnabFG/mnBG4TPkJACAgBITCxCVDjNNQfdCHib/dZ/4oLyHd+CfziAxMboIy+6gQY+GMdYSEd4r5sMhgRsEzSFl9CQAgIASEgBITAhCTw3MnbbrXV5MYLAXx+QgKQQQsBISAEhMBGAupNe6DhoAuhtn2HLyr8wr3Id35Fsq98UZPGIRBgYjozXph5Pn1icX8I9sc0KQKWSdriSwgIASEgBISAEJiQBB45cZf6N87InQbQGRMSgAxaCAgBISAEhgkQ4rt/GPUHnAeqn+yLSuHOs+A94/rqI42FQOAEGK8w09H1H3d+F7jtIgZFwDJNXPwJASEgBISAEBACE44AA7TuzLd9RhH/FEDdhAMgAxYCQkAICIFBAlQ3CXXzT0fi/Yf7IsJ9L6HgfA7c87yvftJYCARNgIG/E2hh3aHOP4K2XcyeCFjFCMnnQkAICAEhIASEgBAIgMC6c972dlXgyxmwAKgATIoJISAEhIAQqCUCsQTi75iH+gMvGBSyfF35DchnTwCv+5evbtJYCARLgDcwqR/UvWXXc2ivq3LB2i5uTQSs4oykhRAQAkJACAgBISAEKibADFp/9o4WsfqaB55DhGlgyG+xismKASEgBIRAtAlQvI5p6x29+K42J/b9HGjS1mUF7D3joPDwrwgbnlOEQlk2pFNECXiFPBdyfQBH9XjJPgBPMGFJXxyXTT3A7aoGSfnRVA3q4lMICAEhIASEgBCYkAT0VsIXv7Pz9nW5/K7M8WmkvNiEBCGDFgJCQAhMFAJEzInJubq3zyvUt57EmPrG8kde6AMe+BkKz65SgNYT5BovBPL9OQ+59TlwIZICVowo5ym1tq5/+qOmC7dvOsciYI2XFS/jEAJCQAgIASEgBGqOgBa0ai5oCVgICAEhIARKJkBAJAWJkgcgDYVAhAjIj6YITYaEIgSEgBAQAkJACAgBISAEhIAQEAJCQAgIASHwegIiYMmqEAJCQAgIASEgBISAEBACQkAICAEhIASEgBCINAERsCI9PRKcEBACQkAICAEhIASEgBAQAkJACAgBISAEhIAIWLIGhIAQEAJCQAgIASEgBISAEBACQkAICAEhIAQiTUAErEhPjwQnBISAEBACQkAICAEhIASEgBAQAkJACAgBISAClqwBISAEhIAQEAJCQAgIASEgBISAEBACQkAICIFIExABK9LTI8EJASEgBISAEBACQkAICAEhIASEgBAQAkJACIiAJWtACAgBISAEhIAQEAJCQAgIASEgBISAEBACQiDSBETAivT0SHBCQAgIASEgBISAEBACQkAICAEhIASEgBAQAiJgyRoQAkJACAgBISAEhIAQEAJCQAgIASEgBISAEIg0ARGwIj09EpwQEAJCQAgIASEgBISAEBACQkAICAEhIASEgAhYsgaEgBAQAkJACAgBISAEhIAQEAJCQAgIASEgBCJNQASsSE+PBCcEhIAQEAJCQAgIASEgBISAEBACQkAICAEhIAKWrAEhIASEgBAQAkJACAgBISAEhIAQEAJCQAgIgUgTEAEr0tMjwQkBISAEhIAQEAJCQAgIASEgBISAEBACQkAIiIAla0AICAEhIASEgBAQAkJACAgBISAEhIAQEAJCINIERMCK9PRIcEJACAgBISAEhIAQEAJCQAgIASEgBISAEBACImDJGhACQkAICAEhIASEgBAQAkJACAgBISAEhIAQiDQBEbAiPT0SnBAQAkJACAgBISAEhIAQEAJCQAgIASEgBISACFiyBoSAEBACQkAICAEhIASEgBAQAkJACAgBISAEIk1ABKxIT48EJwSEgBAQAkJACAgBISAEhIAQEAJCQAgIASEgApasASEgBISAEBACQkAICAEhIASEgBAQAkJACAiBSBMQASvS0yPBCQEhIASEgBAQAkJACAgBISAEhIAQEAJCQAiIgCVrQAgIASEgBISAEBACQkAICAEhIASEgBAQAkIg0gREwIr09EhwQkAICAEhIASEgBAQAkJACAgBISAEhIAQEAIiYMkaEAJCQAgIASEgBISAEBACQkAICAEhIASEgBCINAERsCI9PRKcEBACQkAICAEhIASEgBAQAkJACAgBISAEhIAIWLIGhIAQEAJCQAgIASEgBISAEBACQkAICAEhIAQiTUAErEhPjwQnBISAEBACQkAICAEhIASEgBAQAkJACAgBISAClqwBISAEhIAQEAJCQAgIASEgBISAEBACQkAICIFIExABK9LTI8EJASEgBISAEBACQkAICAEhIASEgBAQAkJACIiAJWtACAgBISAEhIAQEAJCQAgIASEgBISAEBACQiDSBETAivT0SHBCQAgIASEgBISAEBACQkAICAEhIASEgBAQAiJgyRoQAkJACAgBISAEhIAQEAJCQAgIASEgBISAEIg0ARGwIj09EpwQEAJCQAgIASEgBISAEBACQkAICAEhIASEgAhYsgaEgBAQAkJACAgBISAEhIAQEAJCQAgIASEgBCJNQASsSE+PBCcEhIAQEAJCQAgIASEgBISAEBACQkAICAEhIAKWrAEhIASEgBAQAkJACAgBISAEhIAQEAJCQAgIgUgTEAEr0tMjwQkBISAEhIAQEAJCQAgIASEgBISAEBACQkAIiIAla0AICAEhIASEgBAQAkJACAgBISAEhIAQEAJCINIExouARW1tbWr33Xfn9vZ2L9LEJTghMP4IqLa2tvjjjz8enzJlisrlcpRIJHjKlClePp8v7L333jm5L8ffpMuIhIAQEAJCQAgIASEgBISAEBACJgnUgoBFlmVtFYvF3ux5XhOAmcy0NYDJQ/949YCKE3GMmTwiLnge+oh4A6DWA97LRPQSM/+3UCj8d/ny5V0A2CRk8SUExgOB2bNnNzY2Nr65UCi8WSk1fC/y1kS0ledhKyLUA4gTQTFDC8l5IvQz0wZmfhWgl5XiFzxPrSUqPJvL5Z5ZuXJl93hgI2MQAkJACAgBISAEhIAQEAJCQAgIgXAJRFLAmjNnztaJROL9zPwBAO9lph2IMJUZk4gwCUADEdUxcx2AGIDNx1EAkGNGv1Lo9Tz0EtGrANYD/DwR7mVW93hebnVnZ+dT4SIW60KgNgm0tbXFXnrppfd4nvchZt6LmXclomnMmAIM3oeD96IWrUa5BzcfdB5AH4ANw/+sB2gdEf/b83CXUrizoaHh7qVLl+o2cgkBISAEhIAQEAJCYFwSaG62DyXCG8McXDyu/pZOp1eF6UNsCwEhIASqQSAqApbOspqhlDrA8/gwAM0AGk0AIaIHAL4uFov9pqOjQ4tZEyo7q7W1dad8vnBB+KzpjilTtrp8yZIlWsCQK6IELMuKK6Xe73l8JDPaiLCNqVCJaB3Af2ZWv+jr25BdtWpVjynfUfSTSqWaPY+/FHZsRHgyFotd2tHR8XjYvorZtyzrMIDairWr/HO+q66u7tJly5bpFxuRu5LJVBsRf2xYHI5IfJwjohyAXgDdQ5nN9KLn8bOFAj8Zj/MTruu+sEmwE+pvaRCTpLNc6+sbjwbYCsLeeLcRj8fO6OjoeDAq40ylUu2ex3uEHE8XwJe6rntfyH7EfEgEhn93rwDwppBcjJj9e3f3ug+uWbNGf2/LNQoB27ZnMdMJAOsXszVxMUMnaeSVoj6A1wN4GVBdgPcMET2VSCQevfXWW1/e5Hl2wv4tXrBgQX1PT88JAM2uicmtepC8vKmp6dLFixfrNRbpq1oClhaspsVisR1yOW8vpehgZk7qLKtq0SKifma+hxm3AF6H5016dPnypeN+u2Fzc/P7lIrdY4D77+Lx2NEdHR2vGPAlLkok0N7erlzXfTNzbFfA258IBwJ4ewkZVSV6KKsZA/w0Ed1CRH9USj2cSCSemWjZWalU6jOex9eXRdBXJ/onES9yHGeNr24hNE4m7bOJcEYIpl9jkgh/YubPuq6rf+RF7rJt+9sDGcSnAoPbcmvp0t/v/wb4cSJ6iFk9wJx/wvPiL9TV4YWXX375RXmYGns699133ynxeN2lRDiylia9WrHGYqo5nU4vr5b/zf1alu0ACFV8ZMaTgLcwm81qX3LVHIF2lUxmTyLCWQZe1L/MTEdms5klNYfJUMCWZX0UoGt1eRpDLk24YWa8BPBjStFDAO5j5nsBPKeUWltfX981UX5PH3DAAZPWr19/nX4hbwL8OPBxA8ALXdfVu2ZCv/RvnkQisSMR7QTgHQBmaHGWmf8DxO/3PPXEtttOe2bx4sX9mwdjXMCyLGsmEGsFvFYizGXGbqET8udAK9XPEdEKZnQSseM4jn7DNy6Lw4uA5W9xjJfWentgV1fXHsy0H8AtA2LRB5l5egTH1wvQXQMCt0PEtwG4w9QXa7VZiIAV3gyIgBUe21EsdzPjX0T8GKD+b+CH5P2JhLovkUg8MFF+RJdKWwSsUkkNtRMByx8vaV19AqlUajvP46sBzDcQTYEI1yQSia9GNdvYAIMtuhinAtZoYy4Q0RMAP+R5uJ9I3QMU7rYs6/HxfMiSCFi+7zBjApZt2/sCOIyZWgHWWpAuCbXxYsYGpXA3gL/098duXLmy48lNPzcmYLW2tk7zPO9wz+PPAtiFiKYzs/KN1mwHXadH//D+MxFdmclknjDrPnxvImCFzzhiHqilpWXXQoG/AGDewPbZtxp4C1gxAl3PjgjPEGEVc+zHTU1b31ULKa6VDFwErErobbmvCFjhsd2SZSLymPkVZqwdyPp7AlDLiHhJMpl8ZDz/iC6VtghYpZISAUsysPytlai0TiZTBxDxNQYzfu4DeJHruvpBUK7NCEwgAWtTYcAjwovM+I9SWM08mOk/Ll8Oi4Dl+5YPXcDSpWqY6QtK4cvM2AHAS0TUwexlieg5Zk4AapfhZ1S99VNvZ/ynUvTlTCZz58iIQhewZs2alZg6deo8ZroQYJ0eFrpP39NVWoeugSLyFzzzzFM/evTRR8dNoWkRsEqb/HHQinbZZZe67bZ7yzeI8HVgsBB7rV66Ntb1sZg6LZ1Ovzhe69aJgBXe8hQBKzy2ZVjuY0Y6kYhdOGfOnM729nadBT0ha3aIgOVv9UgGlj9e0rq6BPTDdHf3el1z9oumItEvDYjwlRkzZlw+3l/6lcN0IgpYo3DSWw6Xx+PqlHQ6vXo87TgSAcv3XRGqgKXFq4FD9k4D6FtERMy8OJeLnbp5dtVw1MqyrH2I1CXM/D4ALyhFh2UymYz+PDQxybKsyUB8TyD/5YFUxQOHTwz0TTKCHe4D1HeBQsdwwdqa/qEtAlYEV1iwIdE++8xrqq/P7e95fAoRvTNY89WzNpSRRecrpf649dZb6z3SkS866IeWCFh+aPlrKwKWP17mWrPOEtCHqjjTp09/dLS6B+ZiMe9JBCx/zEXA8sdLWleXgGVZevdJejjrwGQwLsBtruvqur5ybUJABKz/wdC1oD2P/8BMV06bttUd4+HQLRGwfN/uoQlYunTN2rVrPw7QRcyD9V3Pq6uL35DP53dljiVeG2k+rw8Kamho+FdPT89UQOkkqI8Deksh1c1FBgAAIABJREFUH+u67v1hCFi6QPvbB/baLmLGZwycsuF7dgLo8DJAf2YuXFPradwiYAWwGiJswrbtJDM+P5AevD+AaREOtdzQ9Ok6Gf0Hd5ttZvxlPD3wioBV7pIo3k8ErOKMqtgiN/BD5T6l1C3M/PtkMvm3ibK9UAQsf6tOBCx/vKR1dQnYtv11vZOjClH0EuFgx3FurYLvSLsUAWvU6XmKCIsBXOU4zsORnsAiwYmA5Xv2QhOw5s+f/6a+vtzvAH43wKe7rvsj27Y/zAx9iELTZpHqZ7sniPDb/v74ZZMnq97+/twVzHwIQJd0d7/y7cAFLNu2P8JMZwL8nho8QankmWaGTst9itm7ur6+/oe1WiBRBKySp7ymGuoMSGb6KhGOIqIdaqDeXCV8hw9ewI39/f1nrly5srsSY1HpKwJWeDMhAlZ4bAO0rE/BeZQZN+fz8ctWrrztPwHajqQpEbD8TYsIWP54SevqERh6kH71QWbWNV+qcPGfXdc9oAqOI+1SBKwxp0f//f0HwN9pampaUqs7HETA8n37hSZgWVbqBIAvIqLFuVz/F1esWPHSkGaEa3W2FTCYga8v8jyeSUQpAL0An9Ld3X3lVlttvQtR4c9K0WRmLxmYgNXW1lb3/PNdZxINHv09kS59ssPNzN7XXNd9utYGLgJWrc1Y8Xgty9qeiC5mxsGbn+pQvHett6C/5fP9n1yxYsUjtV5HRwSs8NaiCFjhsQ3HMj3oefhcZ2dmxXiqz7E5KxGw/K0eEbD88ZLW1SNgWdbRAP2sehEMntq5ezqdfqCaMUTNtwhYRWfkJSKcrAu91+IJ4CJgFZ3fzRuEJmDZtn0/M95EhEWO4/xROx4RsAD6jetmTtw0GMtKnQfwNwFaks/3f3bKlCkbenr6TtfZWwCdEYSApVpaWt5RKHjfBnAogM32MfqGV4sdGKA7AO9Uy7J0EVqvVgYhAlatzFTxONvb29Xy5cv3LRS8cwHo40mDuL+LO45YCyLc73l0RlfXjL/cf//i/oiFV3I4ImCVjMp3QxGwfCOLQoc8wFcQ0aXM/Fgt/pguBlEErGKEXvu5CFj+eEnr6hDQ93VdXV0HMz5YnQiGvBLh6pkzZx5fq9k0YbATAas4VWasGzgJ7ox8vv/aWtvhIAJW8fndrEUoAlZzc/NblIo9AeBOz4st6uzseLAEAesYgH86oHNlYzH1sXQ6/UJLS8vBhYJ3LTPurfgBt7k51ayU1w7QXAC6uvxEvv6lFJ1dX1//66VLl9bESYUiYI2P5WpZVoNS6nDPY50BqY8fnejXEwBdvHbtjMtrVcQSASu8JSwCVnhsQ7ZcAPhOIPbDtWun/6lW7+2xGImA5W/1iIDlj5e0rg4B27YPYsZ1AN5QnQg2en06FlPzJQvrf7MgAlbJK7KXGT9qaKg7/9Zbb9Wnf9fEJQKW72kKRcCyLGt/gJYC9AfAW+S67subCljM+GsiEWvX/y2fzysgvj2QPxMgixlXEfFJruuut217b2a6FuCmigQs27YPHKomz2+bqNkeoyyNtUrRD+Px+I9roS6WCFi+b+7IdZg1a9akqVOnnsCMk0cphBe5eE0FRETrPI9/tn79ujPWrFmzwZTfoPyIgBUUydfbEQErPLYGLOuad/8d/lFzznjKxBIBy9/qEQHLHy9pbZ7A8AP0jz0PC4mgzEfwGo99AOvvTJ2lX9MnqAfFUQSs0kkyY4NSuISZz9ViQuk9q9dSBCzf7MMSsA4D6Eb9T2Nj/cKRJJ+RLYTMiBFhpM4pMWMKgO2Vwr89T30um0136O+slpaW9xQKhesAene5AhYN7GVs0z8gx+nJZr5nfLMOfQCd2dhYf3HUM7FEwKp0qqvbX9ee6+rqOsHzcA4RJlU3mkh6zzHjivr6xLdqQVDelKAIWOGtJxGwwmNr1jLd1NhYf/TSpUv1Foeav0TA8jeFImD54yWtzRNIJls+QOTpU7Z2N+/99R6Z9anNhYWdnZ1PRSGeascgApa/GdAiFhF/A8CVtfDySAQsf/MLICwB66O6lpU+lKe3d8Oi1atXD/5m+18NrMFTCPXBAfrS2lQMwGMAL3RdV9c+HbxGvk+Z+c2+BSzLsuJKqUM8j/VRsG/1jWbidHgVoFMA72eu6/ZGddgiYEV1ZorHpbcNArGjAe98AFsV7zFhW6xnxg/z+f7v19L+fRGwwluvImCFx9aw5Twz/hSPq2+l0+maP7hBBCx/q0cELH+8pLVZAvp5CVD65C39vBSV+sBdRDjecZzfSxYWIAKW/3uCiP4D8BGO42T99zbbQwQs37zDErB2IVIPM2M1Eesi7g9vJmAl8nm1t/5vsRjvrRRf5HnoUwofdhznHyOj0Dv/mHE1Mz9YhoDV8lGg8EOAdvWNZeJ1eHUgZfjs3t7eH69ataonisMXASuKs1I8pgULFtT39PSdCPCZACYX7zGxW+gilER0QVPTjPNqpYCpCFjhrVkRsMJjWwXLOSIsZR6skfBoFfwH5lIELH8oRcDyx0tamyXQ0tIyI5/3biZCs1nPW/bGjJ8SsT45vSa2gYXJTgSscunS3wDvUNd1/12uBRP9RMDyTTkUAautrS22dm3X/QBmMNNx2WzmD1pAH8nAIqKY42Rm6Gh1cgYRXcOMjwN0dWNj/Td1lv1Q0obSpxCeyozTfAlYzc2pfWIx/JqZd/CNZOJ2eAngbzc1Nf0kig/OImDV3sIc+iJYewxA39VfBrU3gqpF3A3wWa7r/qBqEfhwLAKWD1g+m4qA5RNY9Jvr4u639/f3f/z2229/Pvrhjh6hCFj+Zk4ELH+8pLVZAqlUap7n8Z8A1Jv1XNTbf5WifTOZzGNFW47zBiJglT/BRLh+5syZR0Xx2XZkVCJg+Z7fUASsIWEqdbLORiWiX27Y8OoJehvhaAKWbjtnzpzd4vHEGgCvAOoY103falnWjsyUJtI7jtgqWcCyLGsXgHQRrR1945AO//Y8OrqzM5OJGgoRsKI2I8XjaW5OpZTiq2ULb3FWo7R42fPw2c5OZ0nU0+dFwCprfkvqJAJWSZhqrhEzbi8Uch9dsWLFSzUXPAARsPzNmghY/nhJa6MEyLJs/TvjI0a9luiMCGc6jnN2ic3HbTMRsCqa2peI8BnHcf5SkZUQO4uA5RtuiAKW9cZhAWo3QH3GddO/sW17HjP/BCDlus5rylLZtn02M75ChJuY+WvMdDURDhkQsC5k5jNLErBSqdR2zPwjZhw0XFjLN5GJ3oEZnczxYzo7b9N1OiJziYAVmakoKZBUKrVzocDXRC0lvaTgo9Pobs+LHdfZ2fH3KItYImCFt2BEwAqPbZUt60Mbro3H1anpdPqFKsfi270IWP6QiYDlj5e0NkfAtu33MkNnEOhixFG8ngF4j5Hj7KMYoImYRMCqiLI+yfLmWEwdH9W/tyJg+Z7fMAWsOIDPAnQ+ESWYveN7enpuGSnoPkakZFnWdsz0DaXoi8M1tD6v62IVFbBmz57dWFfXcAoRTpJC0b4XwqYdmIhuWrduq4Vr1izZUJGlADuLgBUgzJBNDd+LPyPC4cOnNITscdyaLwD0a8A7Mco/3kTACm/9iYAVHtsIWH4Z4O80NjZeGvVTgDdnJQKWv9UjApY/XtLaGAFlWamr9QlaxjyW5YhPcF33srK6jpNOImBVPJFPK0VHZzKZZRVbCsGACFi+oYYmYOlILMt6AxF9DaCTmLkf4OuI6MZ169bds2bNmtym0R544IFTXnllfav+HlWK9mfmfzF7X7Vt+9b29navqIDV3Nw8T6nYr6TWju9FMFqHPEBnuG7mvECsBWBEBKwAIBoyYVkpXbzu2xE6zcbQyENx0wPwt1zXvSQU6wEYFQErAIhjmBABKzy2EbH8XCymPpFOp5dHJJ6SwhABqyRMGxuJgOWPl7Q2Q8C27d2Z8VcA25vxWLaXf3R3x5Jr1nS8UraFGu8oAlZlE8gMD8DF69evO2PNmjWRSc4YGZUIWL7nN1QBa0TEYlaHA/x9AHGl8DQz/g+glYD3LKASgKfLVs3RpXKY0aQU7igUYicolf+n67p5bWeLAtaQ+rXufiJ6i28E0mEsAmtjMXVQOp1eFQVEImBFYRaKx5BMtswl8m4GMLN4a2lRIoG+RCL+7ttui9a23pHYRcAqcRbLaCYCVhnQaqwLET2eSMTfs2zZsldrJXQRsPzNlAhY/nhJayMEyLJSpwF8egSLt28O4BUiHOc4zm+NkImgExGwApmUh/SBcq7rPheItQCNiIDlG2boAtZIRK2trTvlcvmLiWi/4cQMNaJLEZHHzFoc7SLCRbqMleu6vZuOZkwBS29XamhouJgZx/kefrgdmBk9RLoyPdYxo48IuYHMFI+ZYkScGNhf2QhgCjO2JkJduOH4s64nBeA/KKW+kE6n/+uvd/CtRcAKnmnQFltaWrYtFAo/IVIHMbO+waN0rScavA+7/3cv6jWOOKDvReh7cSozpkXtXhyG2JHP5z4RxaLPImCFt8xFwAqPbbQs8xV9fX1fW7VqVU+04ho9GhGw/M2SCFj+eEnr8Ak0Nze/hSh2HRFS4XurzMPw88gNzPwF13XXV2atNnuLgBXIvGmtYX42m70tEGsBGjEsYGmBRdcFq9mLCDcy83EjWU5hD6Stra2uq6vrfcxkAfxOgKYD0KdKPwPQ3Z6XT3d2dj49GtcxBaxkMnUI0eBJZ1uHPYBS7BPheWb+B6DuBbxHiOhZAFoAWk9EetHkPc/TD8wNA+mMeo/lNoUCvyUWo90A7MmM9wCYXIovA21eAtRXm5qm/7Lax4+KgGVgtitwYVnWSNE7nWr5hgpMBdVVfznrY+r/RoR7mekRZvxXKdb/bfBe9DyvEIvFtHDcwMxvKBSwLRH0QRDvJBq8D/eI0L34KhG+kUwmr9B7qoOCFIQdEbCCoDi6DRGwNnLRL4RK+sFFhKiJ56UskJeY6ehsNvP7UhpXu40pAUs/uHoePw1wodpjrsx/7LBsNn1XZTaC621ZtqPLfARn8fWWmPEk4C3MZrPal1zRIkC2bR/CjKtqqOzKw8xqUTYbjV0hpqfToID1L4DvC2B8cUDp39b6pfA2+lmXmaueqDHwG/+njuNELeEFJgUsInzZ8+g1dZwCmG+jJoi8RyzLykTteWg0CKMKWPrUQc/DFUT4cLUzPojoSWZcQ8R/JaKne3p6XvTzNtWyrMlKqRn5PHZWyjuESB3JzFONrohRndFywDvUdd2uasYiAlY16Rf3PZR95f0ZwF7FW4fbYmiPMq5TCsv6++PPTp0af8FHkWTae++9pzQ2Nk5n5l2VUh/zPBxOhGrfi/rhfeWA2n+s67oPhUvQn3URsPzx8tNaBKwRWvx7pVRJNRk9T2kBq4GoMMnzaIYWpYl4B2beA6B3R0Rgf80yGEpDxy2A93nXdfVbvEhfpgQs/bLB8+ggQOkXgTV7vfpq4xNROhRHBKyaXUqBBK6fN4jUD5n5mGIlWgJxGIyR/MAultPWrVt30eZFlIMxH20rpgQsIlzDzKdVSqNQKBARxevq6hL5fH6SLitCRB8E6CPMPLda604/qztOZsdKxxd0f5MCVlPTzEmLFy+uiWzvoDlXw95oApY+svAIgK6s4qmD+qGyC6BLAO8Hm+97rATU3Llzm2KxxNkAf2o4C6RoIftK/G25Lx3rupmfhWe/uGURsIozqmaL5mbry0rRxVWMQd+L/wH4IgCXBXkvWpb1RiI6lxmfHM6crNa9mCPCV2bOnHlltTMiN51nEbDCW/UiYG0UsK4cqFvxuUpJ60zRWCz2Ps/z2gAtjOjCm4NbiKt1T286pFcBPt51XX0YTUnZZpXyKLe/KQGLWW/7LuzR2dn5VLmxSr/XExABa2KviubmeW9TKndnDdYqvaNQaDhw+fKlayfaDJoSsAC61HUzJ4bJt7m5+d1Kxc8lwrxqZGUpRW/NZDJPhDlGv7ZFwPJLrHbav+7HpWVZM5npBn0DVGkYLxPREmbvAtd17w/jB6f+sU1ESWZ8HUDzcJ2eagz3aWDy+1x3SdWysETAqsa0l+Zz7ty5b4rHE3cz85tL6xF4qy6dvUDE3wsrO6mtrS32wgsvJD0PJwOst17omlnGLyK6Mx6PHXLbbbf9x7jzMRyKgBXeTIiAFayAtelM6fqZ9fVb7UvkfYKZ9wGwS7WLGTNjGRF/qtoZz8VWtAhYxQhF+3MRsKI9P2FHl0za3ybCWWH7CcF+gZkOyWYzS0KwHWmT40nA0qC1YNPd/eoRRPx1ZugSOsYupeiITCbza2MOS3AkAlYJkGq0yesELNu2Dx1Y9PpNZX0VxqT3CJ+bz+d/Z6Kost6e5Xne0cz4AoDtqjBe/YL6W66bKWkLRxjxiYAVBtVgbFqW9T2ATgnGmm8r/2CmH/T399zkZ8uuby/DHXThU6XiRwJ8UpXq7hUAOsZ1M9eVO4ag+4mAFTTR/9kTAWuEBQeSgTXGTJFl7fdeovyBzHq7MO1WxZIE+rCXwxzH+WN4q6pyyyJgVc6wmhZEwKom/er6nj9//vS+vv6/A6jJU9uZkclmHX0aWKRqgYY9q+NNwBrmRS0tLVY+711KhHeFzXDE/sBBTec6jlPxNskg4xUBK0ia0bL1GgGLmSmVarmDmT9oPky6KxajL0+fPv1Ok9t4LMvSxfAOIFLfA7Cz+XHjoVhMWdU6kVAErCrMeAkuU6nUzgPZC8uYsVMJzYNswgPZl7crpb5enXtR7UfElwB4W5CDKsUWET3A7L3X1OkbxWISAasYofI/FwHLiIA16ET/jS0UYrvF43wyM3+6itsKV7iuozOuI7uNUASs8u/pKPQUASsKs1CdGCzL+qLeJlYd74F41aUUbMdxVgZirUaMjFMBa+RvrwXQbwfKfzSZmQ660XUzh5vxVZoXEbBK41SLrV4jYNm2PZ8ZfzU8EP1j8h9EOMZxnDWGfW90Z9ut8wHvembexnAM65Wir2UymZ8a9jvoTgSsalAv7tOyrJMAOsf0ljoiepjZOzisLYPFRw59is88ZugafMYLQnoeDursdP5UQpyhNxEBKzzEImCZE7A2nUXbto8C6CJmnlINIYtZ7RPl07ZEwArvnjdhWQQsE5Sj52PWrFmTpkyZqmtf7R696EqPiAiLHcc5LMoif+mjKa3lOBewGphJb2vVOzlCr0epS3E4Tmbv0sibaSUClhnO1fCycUHPmjUrMWXK1MUAdAFWY5c+2YwodrzrdrjGnI7hyLZtPfbLB47ANVlzSAt4NwN8jOu6L5tmIAKWaeLF/c2bN2+bvr7ctfoU0OKtA21xXzwe+0RHR8eDgVr1aay9vV1ls9mPex4uIjJ6L4IIt6xbt+7gKJzGIwKWz4Xjo7kIWNURsHT9SQAfBdS5AL/DxI/qTZcFM35h28mFUT0iWgQsHzdxBJuKgBXBSTEQUiqVavM81i+hpxlwF5qLgXIqzxPxfNd19VbICXGNZwFLT2AqlWr2PNalMULf1cCMx7NZR9e8jEyWswhY4/c23ihgWdZ+ewJ5nX21rcHhvjAs3Oi6FJFY8C0tLZ8uFDx94tpMcxzoQSJe5DjOanM+hzyJgGWaeHF/tm23MONak7UUtJCsFI5zHCdbPMLwWwwftHAUM/QJjCYLu/8X4P2j8ANOBKzw1pkIWNURsLTXoZdlb5jP7F1CZHaLNDOeZE5YnZ3L/hXe6irfsghY5bOLQk8RsKIwC2Zj0PdsIlH3Y2Z8hggqLO9aHCDCm0L+PdTHjAu22WbmWSZLuYTFrBS7413A0i/Ec7nctcxGXog/0djY8PalS5f2lcLeRBsRsExQro6PjQKWbdv6xIKzh4+zDz0aIvIAPjFqR9cPnaDUeCrA3wSgjwE3cfUB/EXXdbVoYbSAoghYJqa3dB9DD3dTvgbQdwHESu9Zfkt9pDqR+gZQuDoq9Z/0aNra2urWrn3hDIBPL390vnv2EOF0x3F+6LtnwB1EwAoY6CbmRMCqnoA1fG/r00dbPI//EPID2eaLqJuZvpzNZvTf2shdImBFbkp8BSQCli9c46KxZVkfAkhnuLw9zAER4RvMPBugQ0L200lER2UymcfC9BMV2+NdwBre0aAF1uMNPFM81dOzYY/Vq1evi8r8ioAVlZkIPo5BAau1tXVaPu9dB/DBwbsY1aIuFP17Zj66Gtvmio2xuXne25TKXaPrzxZrG9TnRPhFf3//F1euXNkdlM1S7IiAVQolc21mz549vb6+QZ8COt+QVyaim3p7E59bterWFw35LNmNZVkzmXEzEc0tuVPFDekmwFvkuu76ik1VYEAErArgFekqAtYIoFBPISw6gZZlHQPQTwDorYUmLv3b41pmPj5KYv3IwEXAMrEEwvMhAlZ4bKNoeWhLtPoKwBeEvB16bTwe26tQKOwK0LKQT3PtHq5JrEvKRGJnTJhzP94FLM3OslKnAHymgQSVp2MxtWc6nX4hzDnzY1sELD+0aqvtoIBl2/YsZug3CHsYCv9ppejoTCZzW1S/IC3L+hQzXU6EqYaY/Bvgua7rPm3I36AbEbBM0i7uy7KsXYhoNTOmF28dSIvnAD7cdd2q16AbYzTKtu1DmKEfco2cpMKMezxPLVq+PH1vIITLNCICVpngSugmAlY0BKwFCxZM7e3t/Ynn4ZNhbr/ZbElkPa+wqLOzM3LbCEXAKuHmjXATEbAiPDkhhDZcr/T3RNgnBPMbTTLjGiL+cqFQaIzH439mRqgnxVfrhXqYDMeyPREErGQydSLA5xFhUsiMn2psbNhj6dKlkoEVMmgxP3QqgT71q40ZPwOgTwYK+8oPFJP7eTweO6mjo+OVsJ2Va9+yrMnM9BtThbSZ4SmFeY7jpMuNuZx+ImCVQy28PrZtH8mMn4fnYXPLdEV39ytfikLR8i38wJipj6dmRpuJh1wiehEYrElX1dMIRcAK7y4QASsaApb+/dHS0mIVCt5VAHTxVxOXflmkMywjJ9qLgGVi+sPzIQJWeGyjaHno4Cf6LTPXhRjfy4D6vOumf9vW1hZ//vmubxJBZ9OEWWJirecVWjo7O/8Z4rgiYXoiCFipVOpEZj5voL5ZqAKWrjFJxG93Xbc3EpMLQDKwojITwcdBCxYsqO/p6TkdoNNCToEdjJ4ZLxLxYa7rdgQ/nGAtJpPJ2URqpQkuw2zOzWYdPQ/GLhGwjKEuyVEyad9AhCNKalxho4GaChv6+/vfuXLlyicrNBV691QqdYjnsd7W+4bQnQ2mzauvA4VLqrnNSASs8GZaBKzICFgYqjvZoA9OOSbkh7KR3yD9ROpo103fELUMcBGwwrvnTVgWAcsE5ej4SCbtNBFSYUbEjNuZCws7Ozsf0X5SqVRq+LfQjmH6JcKFjuN8I0wfUbA9EQQs27ZPHUiS+DaA+nCZ0yOum9GnCxut5bylMYmAFe6MV9M6WZb1Bmb6OREONBTIyqammclaOeHCsmy9zTFphg2tcN1MqH8MNx+HCFhmZrZEL2RZ9lMAtiuxfUXNiPBTx3GOq8iIoc5DQnvfKoDfZ8jlz3O5/hNN16TbdGwiYIU30yJgRUfA0pHYtp1kxk3mTv+l7zQ21n8nSqclaQ4iYIV3z5uwLAKWCcrR8GFZ1l4A3RVyNHki/MhxnJNHxHZdFxTANQAdELLv7sbGhu2jtB0sjPFOAAFLP+dfTqSOC7l2mp4e13UdO4x5KtemSQFLKfqW51Gu3FjN9+NXc7m+G6r5nFPJmGnu3LlvisfjK5hNHWetDnfd9I2VBG2ybyqVen+hgH1N+CSiDa6bvtqErxEfImCZpL1lX/vsk9q5ro4fNRSRPm3PdhxntSF/FbtJJpPHEim91cjEdUehkD9w+fLla004G82HCFjhkRcBa4RtdYu4j0QxVAyZdFa2qZdFNzY21h8ftYczEbDCu+dNWBYBywTl6vvQ31fDL/7DzpbvArht8+3OyaT9VSLok6obw6XBp7iue364PqprfbwLWPvuu++b4/G6a4kwL2zSRLjecZzPhu3Hj32TApafuKLQlhn/icXog5lM5pkoxOM3Bl1/4l2ex38LeQ/3SFz6y3jXKJ486BfceGkvAlZ0ZtK27U8w4zdmIuJVAA50XbfLjL/KvcydO7cpFovrNPpplVsrakF/V73P9KEKm0YlAlbROSq7gQhY0RKwdDSW1XI04OlanKFfA7Ut78zn8x+tpkA92iBNCVgA1hNh/1gs9mzosANykM/nX4z6b0cRsAKa7IibsSxrT4BuAfCmcEMlp6+v5yOrVq3q2dRPS0vLboWCp+vlbh+y/3/W1cVbly1b9ny4fqpnfbwLWKlUap7nsU6MCHmt6DmkU1w3EynBUwSsse+tmhewLMv6OED6uFQT1w2u63zahCPxURoBEbBK42SilW23nMvsfcuEL4DOH9im3h6lYouljNu27d/qYu6ltK2kDRF5AH/QcZw1ldippK8IWJXQ23JfEbBG+EQjA0tHM3/+/Ol9ff3PAUiEN/MbLT+rFH0gam8eTQlY+vuNmZ8gQs1sd2DmH7que6WBtVG2CxGwykZXSx31wVdneR50MfUwi7eDCJ9yHOdXm8Npb29XjpPVWTVHhgyumwgnOI5zfch+qmZ+PAtY8+bN2yqXy13geficiQOQYjE1L51O67I7kblEwBp7KsaBgJU6HeBzTKw2Zjoqm81ca8KX+CiNgAhYpXEy0SqZtH9HhEPD9kVE/cykixj/MmxfQdu3LOtogIxkacRiqi2dTuu6PFW5RMAKD7sIWNETsHRElmXfAWDv8GZ+o+VCPB7braOj43EDvkp2YUrAKjmgCDUkwqmO43wvQiG9LhQRsKI8O8HE1tzc/DalYvo5Juztzs8CvMNYB8kkky2zleIVYdc1IsLi/v7+o2u1Tk6xWR/HApYWWucx44/hF28fpFwAeGbUsmRFwBrXApZ9HQATe1b7iDDLcZz7i32hyOfmCIj/d2d8AAAgAElEQVSAZY51EU+6gPs9APY0ENETzGpRNpt2DPgK1IVlWXsw05qw33zqoInwTcdxLgh0AD6MiYDlA5bPpiJgRVPAsm37fGYYOfmKWTVns+nlPpdOqM1FwBobrwhYQ2z0UfWAtzCbzdbc3+9Qbx4zxpVlWW0A/QTA1uG6pNNdN6PrXI16MTNZVuoOInwwzDiY8bhSOMpxnGyYfqplezwKWG1tbXUvvPCC5Xn8cwBvNMR2hes6cw35KtmNCFhjoxoHGVi2/iNolbwaym/4r0Ihv+/y5ctrpuZC+UOtnZ4iYEVjroa/ZB9kxg4GIrob4EWu695nwFegLoYOnUgsZ+adAzU8qjG62HUzXw3fz+geRMAKj7wIWCNso7OFUEdkWS2fBrxfhDfzm1oeLI5ctQzL0cYoAtbYMy8C1hAbEbDMfDuMdX8mEnU/NvDS/znPK6Q6Ozsf3NJom5vtI5WCTkKgEKnokxDPaWhoOD9qp7YGMebxJmANnVKpPg3w1wC8JQhGpdio9gvfsWIUAWscC1i2nbqfmd9VygKtsM0KgA+ppaLRFY63JrqLgBWNadInhSQSdXcC2M5ARB3DAtbTBnwF6qKlpWVGPu/dTITmQA2PbqyqNftEwApvhkXAiqaA1dLS8oFCwdPfgwYu9TnXTUeqppIIWCJgFVv4ImAVIxTe57Ztv50ZKwHMCM/LYPb39f39/ScU27bX3Nz8FqJYBxF2CzMeAP+IxdT8dDr935D9GDc/XgSsoYy8lo8CfAIRZgOYYhBmdyymPpROpx8w6LMkVyJgjWMBy7JsfbpEU0kroYJGzLg5kYgd1dHR8UoFZqRrwAREwAoYaJnmLMt6B0A6GzL0dF99L/b2bli0evXqdWWGW7VuCxYsmNrT03sVgMPCDmIgNf8Wx3E+ErafseyLgBUeeRGwoilgpVKpHT2P9UmjoRdy11sVs1nnwvBWmX/LImCJgFVs1YiAVYxQeJ/btn0uM0I9aIeINhDhmEwmc6NOuNvSaGbNmjVpypRp5wL8pZCzsKAUfSKTyZg68Cu8SdzMskEB64q+vh6dFVXyVV9f/7r57+vrG8y2mzJliurv79d/J3chog/rrEBm7FSy8UAb0tJ8vv9TK1aseClQswEYEwFrbIjjYQvhegBbBbBOipjgX+ZyuS8Ue6MQfhziYVMCImBFYz20tLS8p1DwlgHYNvyI6EbA01sIe8P3FawHy7ImM9MlRDgqWMujWku7rtNqwM+oLkTACo+8CFgjbKO1hVBnFCgV+yeAaeHN/saxn+667pg1ZsL3/3oPImCNTV22EA6xEQGrGncmsGDBgqbe3t5/Mof+G201wAtd132olJE2N9sHKoWrAcwspX25bYhw+8yZM+3Fixf3l2sjiv3MCVh4mhn/RzQoSjJAg+IUETPziFDJg58xEw+1G2zDAyeGgwYb6s+QIMIkZkwnGtwiGHIttqKz1sNMJxF5Px3rwIGiFkJsIALW2HDHg4Clj1GOh7h+Bk0T4afM/DXXdbVgJldECIiAFY2JsG17FkC3MPM2YUdEhF/MnDlz0eLFiwth+wravj4WuL8/dz6ALwZt+/X2aLnrZkxsVRx1KCJghTfDImCNsI2WgJVKpbbzPF5jSMg/y3Uz7eGtMv+WRcAam5kIWENsRMDyf18F0cOyWk4CvO8HYWsLNnIAXdbUNOObpQpFQ1mr3rUA2SHHVojF1IJ0On1byH6MmjcoYBkdl0Fnka6pKwLW2CthPAhYXtippyJgGfwq8elKBCyfwEJqnky2fIDI+4uJ7by1LGDNmnXApMmT159HhBNDmopNzWZd1zFxwIUIWMMEkkn7bCKcEfbcioAVaQHrbhNbqYnwbcdxzgl7rfmxLwKWCFjF1osIWMUIBf/5Rz7yka03bOhZEXa9YGa8SMSHua7bUeoo2traYmvXrm1npm+EfzozL9WCT3t7u35uHBeXCFgVTWMfEc5ft27dd9asWaOTYSJ3iYA1jgWsZNLWC7Au7FWnH5r7+/u/KFsIwybtz74IWP54hdXasqw9melWIoSegQXU7hZCnYHV15f7IRGOC2suNj7aM5Zls878sP2MZV8ysMIjLwJWNAWs4S2E9wJ4Q3izP2Q5iqcmiYAlAlaxdS8CVjFCwX9uWS2fIuLLmXlq8NY3tch3dXd37+tXDLAs60NE9Efm0H8/rgViB7puxx3hcjBnXQSsilj/Kx6PWR0dHU9WZCXEziJgjWMBy7ZTr4T/pawB8u8BHOW67sshrlUx7ZOACFg+gYXU3Lbt3ZmRNrN1hn8fj8cX1eKBCvoBL5GovxzgT4c0FRvNEuGPjuMcHLYfEbD+R0AysIZY2Lb9bWacCqA+3PUXuS2Euoj7w+GPW2/Foi9ls5kfh8vXn3URsETAKrZiRMAqRijYz/XBMb29fVfog2OYWQVrfXNrtMh1M9f59WFZli4DcwtA+/nt67N9jhkXrV+/7nS/IptPP8aai4BVNupeIhzvOM71ZVsw0FEErHEsYFmW/RSA7Q2so5UAH+y6bpcBX+KiRAIiYJUIKuRmlmW9FaDbAbwpZFfafIdStDCTyTxjwFegLubMmbN1PF53A8ALAjU8ijEiXOM4ztFh+xnLvmRghUdeMrBG2EZLwNKZqADdY6KsgRbBXde9IbxV5t+yCFhjM5MaWENsRMDyf19V0sOyrDkAXatPe6vETrG+RPQks/fecl/y27b9MWbcVMxPAJ/fQYSFjuPoFw01f4mAVdYU6uLyV+22264nXnXVVZHcOjgyKhGwxp7fcVADK3UPwO8rawn76/TvQiG/z/Lly5/1101ah0lABKww6ZZue/bs2dPr6xv+YUhMvnv4B8j9pUcYjZYtLS3b5vPeMiK8J/yI6HzXzZwSvp/RPYiAFR55EbBG2EZNwGr5OOAZOaqdCPs7jnNreKvMv2URsMZmJgLWEBsRsPzfV+X2aGtrq1u7du3XBzYcnwUgVq6dUvox4+xs1jmzlLajtbEsq4GZ7ifCTuXaKKUfMzYw4/Odnc4voY/Hq/FLBCz/E0iETKFQWNjZ2akTYCJ9iYA19vSMAwHLXgpgfwMrMA/wu0s9GtZAPOICgAhY0VgGuhBnV9cLDzPzzgYi+vewgJU14CtQF62trTvk84W/mzk6WJ3guunLAh2AD2PmBCzcB/Ai13V18eyqXrZtn80cfhF3AH8cPqo8klvaJ/AWwtM9j00UVmeA3+O67n1VXfCbORcBa+zZEAFriI0IWObuWP3CrFAYPFxnVsheXwF4L9d1H63Ej2VZpwD0vUpslNaXborH1TG1WIZi8/GJgFXajA+30plXjxHhGMdxauL5QQSscSxg2bZ9uVbTfS3hshvzsa7r/qzs7tIxcAIiYAWOtGyDlpXKABz2Ucg6vl5AHeu6ab19Rv9BqpnLtu35zPiriYCrnaHR3GwfoRRMbHF6aFjQXG2C65Z8WJb1PYBMZL39Lh6PHR3VH+ATVcBKJm19kMU8A+vwFc8rvDtqb5BFwBIBq9jaFwGrGKHgPm9utg+NxWhx2LWviPDrhoaGzy1dunRdJdHPmdOyWyLBy5k57MOAXlGKUplMRm/3rulLBCxf0/e0Pvxk5syZv1m8eHHBV88qNRYBaxwLWJZlnQzQhSbWFjMWZ7POJ0z4Eh+lERABqzROJlrZtn0VM4414Qug8weyv9td1+014y8YL8mkfT4RvhGMtS09LFH/cD2Kh8L2NZb9ZDLZRqR+a8D/o8MZWCsM+NqiC8tKXQzwl8OOgxm/TSRix4mAFZ0thJZlTQboaQDTwp5/InpAP4Cl0+n/hu3Lj30RsLb0nYxTHccxkF3iZ8Ze29aybAeAVb6F4j1FwCrOKIgWOit+7doud6Bm6Jwg7G3BxnqAT7As6xft7e0VbcnT3x91dXWXMeMzIcesMwF/ks06XwjbT9j2RcAqmfDTAJ/c3d19cy0V8BcBa+z5rfkthMlkagER31LyEq6sYXdjY8P2lb5lqCwE6b0pARGworMebNv+EjMuMRERM24n4oNq7FAFsqzUwwDvGjYjZjzuefk51azZZ9v2Qcz4Q9hjBfAMs1qUzaZvM+Briy5s27564AHtqLDjGKgTcn1/f/8JK1eu7A7bVzn2J2IGlsH1rh++bikUcp9esWLFS+XMT1h9RMASAavY2hIBqxihYD63rFYLKOi/ifqEvxAvuouIFzmOE0RNUmVZ1hEA6VMTtwoxaG26O5frf8fKlSv/E7KfUM2LgFUcLzP+j4iPb2pqWl4rmVcjoxIBaxwLWM3N896mVO4BAA3Fl3HlLTyPF3Z2uj+v3JJYCIKACFhBUAzGRjLZMpfI6wzGWlErOYA/6LquridVE5dt23sz4w5Dwd7a11d3xKpVt75oyN/r3DQ3N6eUiqXD9s+MdcxY1Nnp3By2r2L2LcvW20PnF2tX+ed0RV1d/ORly5a9Wrmt4C1MQAFLP3jdBNAhwdMc1eJlU6ZM/saSJUs2GPJXkhsRsMbGJDWwhtiIgFXSrVRRo/b2duW6Wf338KCKDBXpTASPma6vr0+cVCgUAtmSlcvxu4i8ywHsGWbsw6vxO67rfrvWSlFsykUErC2uEr0m71aKvlCr20VNClj6tzRRTZVleTaRiLfcdtttNSlC01CRQv2Wgd4d/pfd4B/fzvr6xIej+uCwGQOaPXt2Q319PTc2Ng7WCpo8eTI//vjjg/8+ZcoUbmpq4t13353b29sHf1vU2he5CFgmVn1pPlpbW6fl8wV9SmdjaT0qa0WEKx3H+VxlVsz01un8zz/fdRVR+Nk5ekREuKi3t/e0VatW9ZgZ4eu9tLa2vi+fL5ioMVFQij6fyWSurvapQsmk/TARdgufOX+/r6/v29Wc3y2NcaIJWJY1bw8gp7Md3hj+3KMAqC83NU2/Impvk0XAEgGr2PoXAasYoco/tyxrL4D0zpSmyq1t0YJ+ZngBoMAyQZk5RoRtDWRg6YE9mkjEk7X6AKwHIALWmOuzi4h+T4TzM5nMYyHfB6GZNylgeV7sPZ7HfaENJnDDlI/H80+6rpsP3LQBg7RgwYKpvb29VzDjcAP+tIuXAD7Sdd0/G/JXtpuWlpb3FAr8VSIeFKaYtUBFrP+35w2prFpt1W9R9L/r/zakvv6vDRF7pP/P4Geb/vtgG2/ovw/+eyGRSFy2bNmy58sOuIyOImCVAS3ELsmkdTsRzQ7RxaamX/K8xKzOzmX/MuSvbDe2be8+XLx9+7KNlN5RZ6d93nXda6sp6Oy77747JBJ1T5QediUt+byBr7OzqlkTbVjA1TWJ6isZSSl9iXDaunXrLoxqLYeJJGDNmjUrMXnyVP0G6GQi1JUyfxW2WUsEvWVHny4WqUsErLGnQzKwhtiIgBXuLWtZVpyIzgboJGY28X0U7oDCtf4qwCe5rntluG7Csy4C1uvY5gBawVz46dSpU/8YtSxlvyvBpIDV1DRz0uLFi6v20tsvm1pvT/rH45QpU04yc/SqFnzIY+Zfx+OxL0a1gO7QjwQm2275FcCfLHOSN57uNiRgDf3PzdILR9poceypWIyaM5nMM2X6K6ubCFhlYQutk2WlzgH49NAcvN7wla7r6FNII3sa4XD21dlK4WTm8B9whx4Q1MJsNq0L8lbtamtrq3v++a4eIqiwg2DmJUTQLxZeDtvXWPZTqVSz57Gho5kHBcqrqilQbonzRBKwbNt+L4BrmPF+E2uPCPcopRal0+l7Tfjz40MErLFpiYA1xEYELD93lP+2++233665XF6/vNrXf+8J14MB1nU6j6uxeqobJ0oErNes2bWAOt/zYr/t7Fymn0UrOlQgCneDCFhRmIVwYiBt1rbtAwFcy4zp4bh5ndXnAD7WdV39BjSSD87JZHI/QN1IZIoJ3RSPq2NMi3oiYBla8SW6SSaTswG1woRoMRxSF7M6MJtNryoxROPN5s5NvT8W42sA6AddE5c7fCrfv00425IPy7KfAwa3A4R6EdF/CoX8hzo7O58K1dEWjFtW6nsAn2LAfy+gFrlu+kYDvspyMVEErNmzZzfW1zeeCbA+WXTw94iB63c9PRuOWr16dUVH1ocRp0EBK8eM3wOIZA240dgqFfud43RELmtu01jlFMIw7gqjNsm27cOZoV9uhF0E3ejAQnT2FMBHua7bEaKP0EyLgKW31KOLGTc0NNR999Zbq1f3NYxJFgErDKrRsDn4g3GgeOoeAOk3DnuZCmvgbeuf6usTx5reMlfK+CzLeiMzXQbgYBNCAvOgyn3K+vXrLja9pUUErFJWhLk2eu0BKgPwOw15LQCsH+S/EsU3aEMPuPU6nf8r4Z8GNEi8QERXrVv3ypdN34ujzbdl2SvMvQnmNtd1bzK07l7jZt68eVv19eU6iYxk4TxHhIWO49xajbGW4nOiCFi2bX+EGdcBmFkKlwDa9AF8juu63w3AVuAmTAlYQwc3FPaopmAdOLwIGBQBKwKTUEEIe++9YGpDQ+8VRMZKqlQQbWS66tIp5zHz2dUsQVAuDRGw8BgRjnccJxPVhJJy51b3EwGrEnrR7jsoYOmHh/7+vP7SPmLgSyj07SraJzP6iegc1818J0qIdt9997ptt932eM/jcwBMMxSbzkhb5LquPoHL6CUCllHcRZ0N34vfB9hYcXUivMhM3+zufuXnURBtNoWUTKYOIBrMvjLygDt0igjrdPjfFJ0sAw1s29ZbqxYZcKW/lTscx5mntzyb8fc/L83NqXlE/GszGa/04PCx5atNj7NUfxNBwEqlUu8vFAbn3EDR/o3ku4hwsOM4K0udC5PtRMAySTt4XyJgBc/UpEW9nZkZ+uTfGSb9jgNfDylFraZLoATBbaILWMzYQEQXAt55tShAFlsDImAVI1S7n29M2besluMB7weG02bXex6O7ux0fhsVhLZtz2LGHwFsZzCmtOcVFlXjbagIWAZnuTRXZFnWEQDpopgmU9j/Pfxg94/Swgy/VSqV2tnzWP+Y3DF8bxs9PFEo5D+wfPnytQZ9junKsixdn/D7hmLJxWKqJZ1OLzfkb9DNggUL6nt7ey9ixnEAYuH7puXxuFrY0dHxePi+yvMw3gWsoUMZ6BcAv688QuX24rsbGxvnLF26NJInBYmAVe68RqOfCFjRmIdyo7Cs1EUA62xvuXwQ0LtIiOh41838zEe3SDSd6ALW8CS84Hl0YGdn5vZITEqAQYiAFSDMiJnaKGC1trbulM8XdAFdE6d8bcTAjOfjcXXw3LlzV7e3t1ezYBylUqk3Fwqst7HsZHCedC2KC7NZ5zSDPje6EgGrGtS37LO5ufXdShX0lt5ZhqN7uK4u0RyBbb00d+7cN8bj8SXMphnQxa6b+aph7mO6s6xWCyjo1G5T9YHSAH/U5Js427b3ZcbVAN5uhjvdlMv1HbVy5cpuM/78exnHApauMfMuZv4JQHP9k6msBzO+mM06l1dmJbzeImCFx9aEZRGwTFAOx8ecOXO2jscTTwKYHI6HcW/1Pv1CwnXdfC2NVASsodkiogf6+/s+FOXfReWsKxGwyqFWG31e81BkdrvKJhoW4y4iPqmpqWnV4sWLdUE50xe1trbukc8X9A/bOYadr1WKDs5kqqN8i4BleLZLcGdZVgOg9JvAY81kpGwaFDlEfKLjOA9UaT+8vhfflssVvkeEQw3VvRoEoFOp43H1gXQ6rcceiau1tXWHfL7wdwBbGwqom5lOIvKuNfFDVD+w19XV/QCgow1tX88DdInrZk42xLMsN+NRwNInHk+dOjXFTLpo+4cMirIjc/BcfX3d7lEuUisCVlm3S2Q6iYAVmanwHYhlpU4DOFIlTXwPosodPA8HdXY6f6pyGL7cmxKwiOhFZk+/jCzxIl2T+q0lNg6kGREuTyQS31i2bFnNHO5RbOAiYBUjVLufv0bAGq5JsYoo/KPqX/PITOQx811EOM1xHL1lyOSlbNv+AIBzmZE0LRgQ4S/M/HGTGQ+bwhUBy+RSK91Xc7P9YaXwS4PCxUhweWZkiPg013XvMX2M7lAmaP58gD4KoKF0YpW3JMKvHcf5VJWEu1EHYFnWTID0aWGmhHVd/+peXYPNdV1dIyrUeliWlTqBCN9l5qmVz2BJFrqJcILjONeX1LpKjcabgJVKpXZk5qOZcaThLcEbZ3DgQJazHcc5s0pTWpJbEbBKwhTZRiJgRXZqthjY0OE5pE/R2702RxCZqDsAPqBazzPlUDAlYAF0l+tm9Iubkq5kMnkQkfqV4d/BLzPTl7LZzA2mf/uXBKWMRiJglQGtRrq8RsBqb29XrpvV9ag+VoX49YPS8wCfZlnWtaa2EyaTSVspdSnz4PYVA/VXXks2Ho/N7ejo0CeNVeUSAasq2Is6HcrCIl3UX4uqpq88ET2sFH3eZD2kOXPsWfG4Pg118ATGuOFBvwrELde97W7DfrfoTv/x7e5efwGALxqMS2fBLs/l+j+1cuXK/4Tl17btI5ihs15NHZahh/LfWEzNS6fT94Y1riDsjhcBSx+K0tTUdCgzfZUI7wVQHwSfMmw8rRRZmUzmsTL6GusiApYx1KE4EgErFKyhG02lUos8j38k2wcrRt2lFB2WyWR8ZBpV7LMiA4YFrA+WGqxlWXEi0okVXy+1TwDt9HP4ar37w3Xd+wKwV3UTImBVfQpCC+B1dVWSyZbZRINpjkazH0ZGqE8nVApXFwqF76VSqWfCELK0UNfR0TEtFkt8jgj6tEHjwtXQeHmp67ofDm12SzAsAlYJkKrUZDgLS6djV2V9MnNuoPRSe6GQ+0lra+srYdyLehuRZVnTgNinmL1ziWAqE2fTWdV/tH/V09PwhdWrl66r0nSP5ZaSydRCItZF/ROGY7tbKfr4jBkzng5ya/eQOItPEakfGsy8GkH396ammXsFOZ4w5qSGBSxasGBBXX9//2TP8+bo000Bnh0Go1JtDhcY1qcstUc9M0AErFJnNZrtRMCK5rxsKarW1tZp+XxB12Csxov72gO25YgLAP0E8L5qogRBEPCiKmDpse2zzz7bJBL1SwZ26uhdQqbqoDIRXTx58lanL1myZEMQjKtpQwSsatIP1/frbogFCxZM7e3tvYIZnzR4w7xmlDS8pVApurK/X2VbW+f8O6iHZ50q7HnUrNTgiVc6u8V0pseQdMVYR8QHua7rhjvFW7YuAlY16W/Z91BGZOefAV5QxSh1Qc4swD/V/9913eeCimXevHnb5HK5DzHzQoD0GKsimgN4jpmOy2Yzfw57y1w57JLJlrm6JhWAncvpX1kffoRZnVNfH7912bJl+mTGSrYUarFydyL6DEDHMPP0ymLz37sWtpHpUdWSgDV79uzGRCIxk4jeSEQ7Akrf0/p+fscAb+V/lgLv8TCztyibza4K3HLABkXAChioYXMiYBkGHoA7vQuDSGkB620BmBMTwJrhU9X/WQswoixgDT0DLD8U8C4FsK0pnkRY53m0MJvN6PIVNX2JgFXT07fF4EdTdHVNqI9qFZ2Z31zlofcCuEPX5FEKtzDzP8pR9XUqpud5u8Zisf2YMQ+A3oc8o4pjY4B+nsv1fanaJz6IgFXFVVCCa8tqnQMU/lDl9aoF1xeJsGr4XryVmR8u517Uf5AzmczOSsXnD2xTa2HmZiIYFzI2Qa+3y91YX1/3pagWdx6uz6EFrP1LWDKBNyHCiwBcz6M/xON0SzqdfsGPE128e8qUKVq4OpBZ1zbjPauQTaZDzsdi6r1RKtI/FkdTAhYRlgG4qth8eh558Ti9nM/rFz7coBRPYeYmQDUBvD0w+Fth+4G/a/ohsFpC9GjD6APo4r6+nrNWrVrVU2yc1f5cBKxqz0Bl/kXAqoyf6d4LFiyo7+3tPZUZ+hTwqmS6mx5z2P6IoLN2vjpz5syro57prFkMC1jXhf8be7AGVslbCEfmSWcI5nIFvTtBH+pkMAufHvG82Ec6O297JOw1E6Z9EbDCpFtd26OmJO69995TGxsbL2OmIyLyBrV3+AH6Ef2Dm4g64vH4/Vs6KaGtra1u7dq1uzFTMxHvD9B7AMwEsFV1kQ96f4xZHZvNpnX2VSUZDRUPxZSARUTrBgpD60yXapwyWTYn1828q+zOAXQc/vI9jxknBmCuYhP6pD6l0MXM9zPTbfG4Sk+fPv2RxYsXj/lwqLeMxWKx3Zg56Xnefpvci5OqleW5CYguZnVoNpteXjGc8AyoZNLWxadPMX3AxiZD0t9Trwxlq6FTqcHv4TsymYyukfW677C2trbGrq6ud3ke9h3+/n03gKYq1kDSQ1lpWcnmoLJ5w5tukxlY6BuosVHSiUMDh6zkiIiGT4vUmcv6x3Sd2R/Vvqk/phS1ZDKZJ3z3rEIHEbCqAD1AlyYELEDfh3iWmUq6bwMcXkWmmPmKbNbRdaYic7W0tGxbKHi6ePsekQlqXARCf87n+49csWLFS1EfTtQFLM1PH25UKBSWMRvPwv9LX19vWy28/BlrnZkUsIgSezGjL+prfkvxeZ5X6Ovrfmb16tVRK6fyurDH3FNr2/a+zFgM4E1RnAwi6mfmxwdONnpKKfXy0I9wTgA0DfB2HH4TPDmCsetT3i7v6nr+6/fff39/teMzJWBVe5zl+nddx9S+8zFDTCaTs4nUNXpLTrnjCLmfFpgfB/C0UtD3Yg8RJnkephFBZ2bsErGsjBEczIyLslnnpJD5VGxerwGl1B8Gvju2qdhYsAbW63nXKecDb7F1zbRJAOsXBW+MkrCht6UDvCjqpw+OTI2pDKxgl0LkrOUAPsJ13ZsiF9kYAYmAVSszNXqchgSsGoXE3x3I2j49SsFbVssnAe/XUYppnMTSB/Ac13UjdSjOaGxrQcDScadSqUOYcSMz65dGRi79wpqIT21qarq0FrLpRoNiUsAyMinhO3mFmRbVwvbRLT2ck223nOF53pkRycIKf9oMeCCiewsF9cnOzo4HDbgr6tf6obEAABZDSURBVEIErC0jioKApbdgTZ489WQinAGgseikSoMSCdCq7m61YM2aDp1ZFOlLb4MGaEm1thFGGk5pwT2USMRbbrvtttBOVSwtjNJaiYBVGqcttMoPiOdXOY5zQrWznP2MRAQsP7Si11YErC3NSbQELL19sKenNwtg7+itpNqPiIh+4TiZz0b9+7dWBKyhA49SPwL484a3u94HxI513Y7VUZ9LEbAC+d4YFwKWTlucls/rtxNVLSIdyIxEwYhWs5lxeGeno0+Wi8QlAlb0BSwd4XCq+88B6NpRclVIgAhPMPOnXdddUaEpY91TqdS8QoGXygsF38gLA1svz21oaPju0qVLayK9WwQs33P8mg5EtIzZO9p13acrs2S2twhYZnkH7U0ErNoRsCzL2p+Z/iJ/T4O+Czba647F1F7pdPr/QvMQgOEaErB0FtaOnse/BDAngKGXakL/fvpNLBb7QkdH9F/2bj4oycD6//bOPDyu6jrg59w3mrFseSGWbJlAHLMlrlv6EYhTx8h6o9ECJF+SLyBoWcJWSmjL4mJakgJxE8AmbE4JBQyEEAJNMTRtDAgZzbynkfwZ0hpKylIwxMZm8SIb27KtWd67p3OskTEiWPNGM0/vvbn3+/yX73rOvaP7fvcshar5QL1gAKz8h/MfSSl/Mwa+t46l7v0GdF1dXd1SL5liKoDlD4DFs9T1tmMQs6uJyGtuZN4/eh+f4YAQ+P1du3bdvXbt2qxfJs+WeJMmTX6WiJr8MmdvzBPXAciL/AQrFcAazc7BdYh0mWEYBgDI0fTkdlsFsNyWeGnHUwDLHwCLk8l0d3c/Q6QeBEt7Aob3hstMM7GwvGOMrnc/ASwAEI2NjacjirvzMUVHt/jCW3OszCu6u40RE74U3qU7NRXAcizn4ACs9vZ2bevW7d8BoGWIMMmxKFQDzuAmEaHDsrLneS2ooQJY/gFYPNMFC6LfEAIeBQAvxnfzw2m3EfFxInmFaZp9fpjwwXNsbIw1IMpO5UpasOZsIlg+fvy4hX6xvuKVKYBVsH6HV9wFQNeapnmfH90dFMAqWu+eaKgAlj8AVj7GL2d35niN5S5pRPSM5S8Rxwp2LRTFuwA0z8uWsD4DWNDa2johm83eSQQXuexKuFdK7cteCX9T6KFVAKtQSR2oFxyAxUvSdX1K7jL4AwBk39uIY3FUdgPO0PWiEPjXiUTiv7x2qVYAy18Aa968edWRSPXfAxAHHp9Y2UerqNU/r2ni4ng8/lpRrce40fz535gYDvf/VEo4V7k+FKSMDQDU7odgsgevRgGsgnQ7vBIncrm1rq5uyYoVK8Y8QUoxK1AAqxipeaeNAljeB1hz5swJ19VNvwmArnQh0cgAAC6XkhJe2KWatn8WJ0kJV7phkJDPWv09wzDu8tq3z5A+/AaweN7RaHQOEfwbAMxxeV+ZkUj47M7Ozg9cHrfo4RTAciy6YAGsPMQ6AkDcBUDfciyOym6wGYAuqaur6/CS6+CQShTA8hfA4tk2NLTN0LTMEgA424ULWJBO7xuIcL5hGByM0q8Fm5qaolISW5hwdkdVDiEBIfCaRCJxh99cyRTAcratB7Ml4ZJ0euB2P6f8VgDLmd69VlsBLO8DLF3XvwiAP3cpePsmITCaSCTe9spebWlpOdayrIeIYL4LcyIAfBpAXmKa5mYXxnM8hB8B1uA3eewMIvloLr6na1kJASCVyzD+41QqtdQvf2cVwHJ8JIIHsFgEra2t0zIZ6z/YJNSxSCqzgQ1A5wLAE7n0wZYXRaAAlv8AFs+4ra1tRjqdedzlYI5e3MKFzmmTpomz4vH48159CSx0IZw9KZVK/UBKuNrly0uhU/REPURYlUqlvuWXi9bBQlMAq/AtxPAKAJYi0p2mae4pvKX3aiqA5T2dOJmRAlieB1giGo2eSwT3uuFGhwj3G4bxXS89oAyGhem7GRE4NhW7E5a7bCGSF3Z3d3eUe6Bi+vcvwOLM1HArAF5VzLqLbZNzXdyISJwgpavYPtxspwCWY2kHE2CxGJqbmz9nWdYTRHiicmH59I2BiLsR4cpEIsEvPZ4tCmD5E2DxrHVdr0XEZ6WEE9RZ/FQ9EgC9i4iXG4ax0ksXydH8KMydG5s6YQI9Q0RzR9NPgNu+o2mi1esZkD5N/gpgFbwz+xHhpzU1NTeuXLmSQZaviwJYvlYfKIDlbYA1mFndfhAATndhp1mhkDa3q6vrJRfGcjREU1PTV6UkjgFW56hhkZWJ4I5MJnWdFx+T/AqwWBX57ORPA8CJRaqm2GZP27Z1YU9Pz7ZiO3CrnQJYjiUdXIAFABiNRucSwe0A8GcuB5FzrIkxasBugzdWV1c/4PXAwQpg+Rdg8cybm5uPymbtexAh6tJr2hgdqaKH3UCEN+zZs+tXfso4WMhqGxqavqRpxFZ4RxdSv1LqIOJWKeHaPXt2/dKvOlcAq6DdygGCl+U+wu42TTNVUAuPV1IAy+MKGmF6CmB5G2DpestJABZbjkwu904jgkR3t9HsRYtvzmg8ceKk3wDAKeWWQ77/t6W0W5LJ5HqXxit4GD8DLLam27Zt2xlE+M+I4Fp2ckSUueRkN+j6giWLFy/2dKZfBbAKPgpDFQMNsIBT0CaTyZOklLcBYINj8QS4ASLuAKDrM5nMI6tXr+73+lIVwPI3wGKgHIvFZts2cVDSrwMAmxWrsl8CtA4RFxJRp1ddeEerqHxWSk6pfMRo+wpI+xQA3h4KiVu7urp2+XVNCmAdUnOcGOUFRFhSW1v7tBdjSxa77xTAKlZy3minAJbXAVaUXQcvdWG32ADiDNOMs5WTJ0s0Gj2NCNh6x43ClvALTdP8iRuDORnDzwCL1zmYZA2XAuzPSuiGS+iQeHciwjmGYTzjRN5u11UAy7HEgw2w8uLA+fPnz6iqqnoAAE91LKIANiCCHYjinOrqsOF1y6sh8SuAdeiNaJoG+mCrYkNDQ70QoWWIcKYP5uvGFPkD91LDMH7nxRfQUgmAX1JraiZfgEi3AMBhperXx/08XF097oqOjo7dPl4DZxm6gQi+r7L+fkKLFgCu1DS8Lh6P/19QXIKHVqkAlp9PLX9MRg3+pvT3Kso1e7op95B0Xbl6H6nflpaWwy3LfpOIJoxUd7T/T0QvIcJpXg1czuvju8OkSZP/m4iOH+16C2y//rjjjv3C8uXLswXWd6Wa3wFWHmJxQp/ncskJPu+K0D4a5FUh8GuJROIdl8cteDgFsAoW1VDFigBY+xfLF65wOHwbEZznRlBEx6pwpwEHa38NEc8zDONld4YszSgKYB1ajj4BWPsXwZaR3d09S4nkZbngjnxJ8wN8K81GzveCiBkA6rLt0FXJ5HPrStq5Rztrb28P9/X1LQKAf8jFmpjk0WmWdVo52JMBgCcR6TtBsLZTAOvj2yXnriCFgJ0AsCz3AXprUFwGhx8KBbDK+jNR9s4VwDqUiMcUYKGuN/0QgMoO0Ni9Skq6cfz4cTd7/SE7Go3+VT6gvSt3xbzFzmNlP4gOBggCwMpDrLMQxS+IyM2shBYiLK+pqbnGqzEoFcBycBgGq1YOwOLVtrW1fSadTl8CgH8DAEc6FpePGyDiPgD6zxy8u8WP1h4KYAUHYPFK8hnqziGCvyOC2ZUU3J0ItiLiI7advb2np+cDH/+sOJ56Xu9XsN4BoN5xB/5usBMAfwkgrzdNkyGH74sCWB+pEBF2EGECQP7ENM1e3yv3EAtQAMvf2lUAy5sAq6mp6bNSkgkAbKlS7sKx+S70Q5a2BQsWHCmExlaDLsXRxB4AyZZpnskWGxSARUQYjTbdg4iXEJEo9yYf6h8R37dtWjh9eu2TXnTnVwDL8U6oLIA19OE8MDAQBcBFiBh18wA5Vk+JGvDBRYSl2Wz2Cb9+MCuAFSyAxauZM2dOeNq0aV8GgCukpHZEdOV1rUTHynE3gwElaU0+oPNTQbXOGEkwuq6HEPHbRHA9APzxSPUD8v87Afa7Tz5gmmZfQNakXAg/UqSpaYKzhj0Xj8e3BtkdmJesAJa/T7ACWN4EWLqufxcAb8tbppdzk3Gsp6ds277YDxna5s2bVx0Oj7sRcf/DlxvlQynh3GTSO3GTggKwWHkLFiyYJYR4FADnuaHMg8Z4Xkr7zGQyucnlcUccTgGsEUU0vELlAay8BLClpWWGZVlsifW3QXVnyZsIm4ihq/v7d7zq10xX+R+8E4TQXnS8xSukgZ9cCIepBHVdnyyEaJeSfgQA0wOqsjTDC8vS7ujt7doQtJg4TnWWz0pzAgDeiogLAv6Q8F4opF1gWVZv0KBlpVtgIeJrtk23EFkd9fX1O7z4suv0bBZSXwGsQqTk3ToKYHkPYMVisam2bXOs3m+WO6wCIuwjon/MByvnZBNeL5xV/lQi4EeCsltusys439emTau9fMWKFez2P+YlSACLw4iYptkOgJzYZ6pbwmW9ItLPTNO8xK0xCx1HAaxCJXWgXsUCrP0SGDxEvU1E1o8R8YsBio1lA8D7RHBXKrXvvhdeeMHXgYIVwBr5YPsYYA0tDhsaYrM1Td6cDy5b9vTRI0u1JDUGEOH3RGKRacY7g26Z4VRinJmGCG9ChLPzKcODYoXHHwV7EaEjHA5f2dnZGUhX0UoDWHkryr0A8B4R/guifCQo7qBOzq4CWE6k5b26CmB5D2A1NsZaECUDGjfCm2wSAqOJROJt7+3OPzyj+fPnH15VVfUgAJ7ixpyJ4HeahhcmEglPPJwHCWCx/vJxqZcRwfkAoLmh0wMfGwhnGYbxhJcekhXAcrwDKhtgDYnr5JNPPkzTqi7IZ0b7Ux+DLAZXG3IWDQkAuttvgdoPtX2VC+GhD3cAANb+Bba2tk7IZrPfzCdbYPdC115nHP98HrpBGgBfBJBPRiKRhzo7O3eUuP8gdZd/XSV2nzg5AFkK0wD0WwD4RSgUWtHV1bUrSMo6eC2VArA46QIRrSOClxFFB4DNLsCBiGNWzN5UAKsYqXmnjQJY3gJYuq6Py8Fxzuh6bbmtr3jlRPCz7m7jYu/syIJmgo2N0UWI8E8ufaPxHW4RgLzXCwlXggawWOOxWOx426ZfAdDsgnZAiSoNPirT6aZp/k+Juhx1NwpgORahAlhDIhvMjNZ9LMd6lxLOQYS5jsU5hg2I4H1EegwRn0qlUr9ds2bNwBhOp+RDK4BVGQBraJW6rtcTiSginQ4Ap7l0YSnFvrVyMepfIILHECkBAG954fJTioWVuQ9saGirFyLbLASdSwQxt1/lSrA+iwhe5Aw7lpV+rre3l7NL+sE9o+ilBxlg5a2t3sntxR5E7CGyX0bE170U2LdoxY2yoQJYoxTgGDdXAMtbACsfvL0LANgTpNzFsm38Sk+PNyyLnCw2FosdZ9synnPvO8JJu1HUjUci4TO98AAZRIDFsFbXY2cByEcAIDQKPTltylkJ/7WqqmrRqlWrOGblmBcFsByrQAGs4SI78cQTqyKRqYeNG2c1SgkLAYhBlqvmjQ7V+C4APixl6MFstn9z0MDVkCwUwKosgMWrzfvJTyLSjhWCLpeSTkeE8Q7Ph1vVGVz1IsKdVVVVz0+ePHl7pcTDKaWAOTbW7t27Jw8MZE8Sgq7Jx8dyM91yUcthdwMh4HbLsp6rr6/fWim6DxrAIk6RhOItRHpWSuwgsl6xbXvn6tWr2W2Q46KoooK4+34PKIDlLYCl67GLEWm5S7Egu3S9sW3x4sV+/D0TjY3R+xHhIpcOYRYRWgzD6HZpvE8dJqAACzipDwAuAwCOSe1m6UeEq2prax/2wn1NASzHqlcA61Aia29vD2/Zsv1kRLoUERYAQA0RjEcE11J/Dpsfv+ZzMGi+TL9FhPchyl9XgiuDAliVB7CGrZiDvc8EEOcD0J8jwjQpoQYRxgpusLsup1j+EICetW1xfzIZfwkRA21x4/hPzCgaMMzq6+s7iQj/EoBOQYRJ/Pvr8kvdJ1YwGAh0/2/wLkTkrJL3GYbB1nYVp3ufASw7l/nSRoQswIF/HKD3XSJYi0hrQqFQsqur610Fqw59cJUF1ih+2DzQVAEs7wAsfjSvqZm4FhH/xIWtYRNhe3d34tcujFWWIfLfAuyi74rFDhH8e3e30T7WfxOCCrB4kzQ0tM3QtEwHAHAIH9dKLvbqm0T0NdM033Jt0E8ZSAEsxxpQAKtQkTU3Nx9lWbIJkb6acw86DgA+n8+GUXbrLCLYjQjrAXAdIr0kpehBtNdUkmtSNBr9AseUKVRflVbPMIyvVMqadV2vIaJ5g9Y5eDyfRUT4nAtBwPcSwXtCAGcRfIOIkpqm9cTjcTZBrjh44eZ+i8Vi06WUjWz8wW4WRHgkEX0WESa6FDNkHyK+R0SbEGEdAK0RQvQmEon1Y32xdVMPw8fS9aYLEOk8Iqoay3kMjc0AOZ9BKg+rkB98+F8KAHYCyD4isZWI3tM0DsRO75imuV2dX2fa48t2f//eaxCJ3bvLVohor6ZpfxGPx7eUbZAK7FjXm+5BpC9V4NJHXDIRPmSaiXtHrFiiCrqus9vg8hJ1N0I3YguAvMw0zT53xivLKBwz80EiOqYsvX+iU0xbVvbM3t7eD90Z7w+PEo1G2SvohwAwpZzzEAJeMQzjnHKOMbxvfqzcunX7txHpaiKodnNsRHrcNE1OHjWmd/h8HLzvEVHUzfX7dyzcKyUuSSYTSa+vwTOZqXiTsf81kTYLkY4motmIMAcRjiWCGQBQios8B/19iwjeBID/FWI/JX47FAqt7+rq4oyCY3rQxmKzsNyllLPGYmw/jJlMJl/3wzxLPEfR1tY2ZWDAnimENZMIZwkBs4nwGAA6KncpPLzY85iPf7MNANbnAz6+NngmtY1SZjb09PRsrsRzWGL9Oe6OLzqbN2+eFgqFGFhyHIyZ/KCACLOIYGZe5zWjhFpsXfUBEWzkhwN+pZMS1zPwkFJurKur+8ALJueOhVeGBpwARQgxJRwOe+JvdCaToVAoJKWUbCFpRSIRDr6ezmQy6Up68CmDqj/WJbt3r169uj6dTpc1W6ymaXL37t2/X7t2LVvNqVIiCTQ1Nc20LMur7vglWmVx3RBN6Ovp6eC//a6UU089dVI2m611Y7B0WhuIxeZt8an74AERNTQ01EUiEX68cqXs3bv3g7EOz9Lc3Dw5k+GH2kxZLc80TdtnGMYbrgj2oEE4gZNt2zOz2WzE5bGtZDL5igfu89ja2lonpeT7qyojSMCyLBkOh7etWrWK7+ueLp64HA+XEF/iVq5cO27KlH3VQohIKiWnhEKSA8EfzR/TOdcSBlq1APgZABoPQGEAZPdDvozxqzBnMWIXpM2IuElKuR6x6vVQCN7ft0+kbFtLWdbWAXV58/TeVJPziAQGfelhnKZpkVRKRDQNJiDKI4SQs6SE6UJArZQwRQioJmLXQz6LlEGENBExGO4DEFukpI1E1oaqqqpd2Ww2U1NTk964cWPq1VdfZXcjVTwkAdZ5OByOIGIknU6Hs9lsuLq6eqpt24cTUT0RThWCXyyRrfbCRFCFCIQIHLOM9blnUPeijwi2MKQCgO2s93A4nLFtO93f359Wv8EeUrqaipKAkoCSgJKAkoCSgJKAkoCSgMcl8P/YpeZg9M3+0wAAAABJRU5ErkJggg==;imageBackground=#FFFFFF;imageBorder=none;shadow=0;strokeWidth=1;perimeterSpacing=0;" parent="1" vertex="1">
          <mxGeometry x="107.41000000000003" y="413.27" width="122.18" height="40.52" as="geometry" />
        </mxCell>
        <mxCell id="KS0Zy-HTCMdx_QMxHU3v-14" value="" style="endArrow=classic;html=1;rounded=0;fontFamily=Helvetica;fontSize=12;fontColor=default;autosize=1;resizable=0;strokeWidth=2;exitX=1;exitY=0.5;exitDx=0;exitDy=0;entryX=0;entryY=0.5;entryDx=0;entryDy=0;" parent="1" source="KS0Zy-HTCMdx_QMxHU3v-13" target="KS0Zy-HTCMdx_QMxHU3v-17" edge="1">
          <mxGeometry width="50" height="50" relative="1" as="geometry">
            <mxPoint x="207" y="432.01" as="sourcePoint" />
            <mxPoint x="267" y="432.01" as="targetPoint" />
          </mxGeometry>
        </mxCell>
        <mxCell id="KS0Zy-HTCMdx_QMxHU3v-30" style="edgeStyle=orthogonalEdgeStyle;rounded=0;orthogonalLoop=1;jettySize=auto;html=1;exitX=1;exitY=0.25;exitDx=0;exitDy=0;entryX=0;entryY=0.5;entryDx=0;entryDy=0;" parent="1" source="KS0Zy-HTCMdx_QMxHU3v-17" target="KS0Zy-HTCMdx_QMxHU3v-19" edge="1">
          <mxGeometry relative="1" as="geometry" />
        </mxCell>
        <mxCell id="KS0Zy-HTCMdx_QMxHU3v-17" value="&lt;font style=&quot;font-size: 20px;&quot;&gt;Nginx&lt;/font&gt;" style="rounded=1;whiteSpace=wrap;html=1;arcSize=10;strokeColor=#2D7600;strokeWidth=2;fillColor=#60a917;fontColor=#ffffff;" parent="1" vertex="1">
          <mxGeometry x="321" y="382.53" width="92" height="102" as="geometry" />
        </mxCell>
        <mxCell id="KS0Zy-HTCMdx_QMxHU3v-16" value="" style="image;sketch=0;aspect=fixed;html=1;points=[];align=center;fontSize=12;image=img/lib/mscae/Docker.svg;" parent="1" vertex="1">
          <mxGeometry x="348.71000000000004" y="484.53" width="36.58" height="30" as="geometry" />
        </mxCell>
        <mxCell id="KS0Zy-HTCMdx_QMxHU3v-19" value="&lt;font style=&quot;font-size: 20px;&quot;&gt;Frontend&lt;/font&gt;&lt;div&gt;&lt;font style=&quot;font-size: 20px;&quot;&gt;&lt;br&gt;&lt;/font&gt;&lt;/div&gt;&lt;div&gt;&lt;font style=&quot;font-size: 20px;&quot;&gt;React.js&lt;/font&gt;&lt;/div&gt;" style="rounded=1;whiteSpace=wrap;html=1;arcSize=10;strokeColor=#001DBC;strokeWidth=2;fillColor=#0050ef;fontColor=#ffffff;" parent="1" vertex="1">
          <mxGeometry x="481" y="303" width="121" height="87" as="geometry" />
        </mxCell>
        <mxCell id="KS0Zy-HTCMdx_QMxHU3v-32" style="edgeStyle=orthogonalEdgeStyle;rounded=0;orthogonalLoop=1;jettySize=auto;html=1;exitX=1;exitY=0.25;exitDx=0;exitDy=0;entryX=0;entryY=0.5;entryDx=0;entryDy=0;" parent="1" source="KS0Zy-HTCMdx_QMxHU3v-21" target="KS0Zy-HTCMdx_QMxHU3v-23" edge="1">
          <mxGeometry relative="1" as="geometry" />
        </mxCell>
        <mxCell id="KS0Zy-HTCMdx_QMxHU3v-33" style="edgeStyle=orthogonalEdgeStyle;rounded=0;orthogonalLoop=1;jettySize=auto;html=1;exitX=1;exitY=0.75;exitDx=0;exitDy=0;entryX=0;entryY=0.5;entryDx=0;entryDy=0;" parent="1" source="KS0Zy-HTCMdx_QMxHU3v-21" target="KS0Zy-HTCMdx_QMxHU3v-29" edge="1">
          <mxGeometry relative="1" as="geometry" />
        </mxCell>
        <mxCell id="KS0Zy-HTCMdx_QMxHU3v-21" value="&lt;font style=&quot;font-size: 20px;&quot;&gt;Backend&lt;/font&gt;&lt;div&gt;&lt;font style=&quot;font-size: 20px;&quot;&gt;&lt;br&gt;&lt;/font&gt;&lt;/div&gt;&lt;div&gt;&lt;font style=&quot;font-size: 20px;&quot;&gt;Node.js&lt;/font&gt;&lt;/div&gt;" style="rounded=1;whiteSpace=wrap;html=1;arcSize=10;strokeColor=#005700;strokeWidth=2;fillColor=#008a00;fontColor=#ffffff;" parent="1" vertex="1">
          <mxGeometry x="481" y="467" width="116" height="92" as="geometry" />
        </mxCell>
        <mxCell id="KS0Zy-HTCMdx_QMxHU3v-23" value="&lt;span style=&quot;font-size: 20px;&quot;&gt;MongoDB&lt;/span&gt;" style="rounded=1;whiteSpace=wrap;html=1;arcSize=10;strokeColor=#005700;strokeWidth=2;fillColor=#008a00;fontColor=#ffffff;" parent="1" vertex="1">
          <mxGeometry x="678" y="398" width="125" height="61" as="geometry" />
        </mxCell>
        <mxCell id="KS0Zy-HTCMdx_QMxHU3v-25" value="" style="image;sketch=0;aspect=fixed;html=1;points=[];align=center;fontSize=12;image=img/lib/mscae/Docker.svg;" parent="1" vertex="1">
          <mxGeometry x="523.21" y="390" width="36.58" height="30" as="geometry" />
        </mxCell>
        <mxCell id="KS0Zy-HTCMdx_QMxHU3v-26" value="" style="image;sketch=0;aspect=fixed;html=1;points=[];align=center;fontSize=12;image=img/lib/mscae/Docker.svg;" parent="1" vertex="1">
          <mxGeometry x="520.71" y="559" width="36.58" height="30" as="geometry" />
        </mxCell>
        <mxCell id="KS0Zy-HTCMdx_QMxHU3v-27" value="" style="image;sketch=0;aspect=fixed;html=1;points=[];align=center;fontSize=12;image=img/lib/mscae/Docker.svg;" parent="1" vertex="1">
          <mxGeometry x="732" y="593" width="36.79" height="30.17" as="geometry" />
        </mxCell>
        <mxCell id="KS0Zy-HTCMdx_QMxHU3v-28" value="" style="image;sketch=0;aspect=fixed;html=1;points=[];align=center;fontSize=12;image=img/lib/mscae/Docker.svg;" parent="1" vertex="1">
          <mxGeometry x="722.21" y="459" width="36.58" height="30" as="geometry" />
        </mxCell>
        <mxCell id="KS0Zy-HTCMdx_QMxHU3v-29" value="&lt;span style=&quot;font-size: 20px;&quot;&gt;PostgreSQL&lt;/span&gt;" style="rounded=1;whiteSpace=wrap;html=1;arcSize=10;strokeColor=#001DBC;strokeWidth=2;fillColor=#004C99;fontColor=#ffffff;" parent="1" vertex="1">
          <mxGeometry x="678" y="531" width="145" height="62" as="geometry" />
        </mxCell>
        <mxCell id="KS0Zy-HTCMdx_QMxHU3v-31" style="edgeStyle=orthogonalEdgeStyle;rounded=0;orthogonalLoop=1;jettySize=auto;html=1;exitX=1;exitY=0.75;exitDx=0;exitDy=0;entryX=0;entryY=0.5;entryDx=0;entryDy=0;" parent="1" source="KS0Zy-HTCMdx_QMxHU3v-17" target="KS0Zy-HTCMdx_QMxHU3v-21" edge="1">
          <mxGeometry relative="1" as="geometry" />
        </mxCell>
        <mxCell id="KS0Zy-HTCMdx_QMxHU3v-34" value="&lt;b style=&quot;text-wrap: nowrap;&quot;&gt;&lt;font style=&quot;font-size: 22px;&quot;&gt;VPS&lt;/font&gt;&lt;/b&gt;" style="rounded=1;whiteSpace=wrap;html=1;fillColor=#6a00ff;fontColor=#ffffff;strokeColor=#3700CC;" parent="1" vertex="1">
          <mxGeometry x="488" y="235.01999999999998" width="138" height="39" as="geometry" />
        </mxCell>
      </root>
    </mxGraphModel>
  </diagram>
</mxfile>
